<?xml version="1.0" encoding="UTF-8"?>
<svg id="Layer_1" xmlns="http://www.w3.org/2000/svg" version="1.1" viewBox="0 0 475.64 187.09">
  <!-- Generator: Adobe Illustrator 30.2.1, SVG Export Plug-In . SVG Version: 2.1.1 Build 1)  -->
  <g>
    <path d="M344.9,10.08c5.6-3.86,12.38-6.12,19.68-6.12,19.18,0,34.78,15.61,34.78,34.78,0,11.99-6.09,22.58-15.35,28.84l-2.61-3.18c8.35-5.49,13.87-14.94,13.87-25.66,0-16.92-13.77-30.69-30.7-30.69-6.74,0-12.99,2.19-18.06,5.89l-1.62-3.86Z" fill="#a17d23"/>
    <path d="M389.34,165.35l-1.78-2.41c-.14.55-.27,1.1-.4,1.64,1.8,2.66,2.55,5.56,2.4,8.45l2.27-6.63c-.11.01-.22.05-.33.05-.84,0-1.65-.4-2.16-1.09Z" fill="#a17d23"/>
    <path d="M373.92,87c-.36,1.61-1.1,5.17-1.27,7.83-.04.7-.04,1.45-.02,2.22l3.76,10.62c.29.34.58.69.9,1.06,1.37-3.75,4.12-12.22,2.75-21.3-.12,0-.26.02-.38.02-2.43,0-4.33-.2-5.75-.45Z" fill="#a17d23"/>
    <path d="M279.71,166.29s.18-.06.44-.14c-.12-.07-.23-.16-.35-.24l-.09.38Z" fill="#a17d23"/>
    <path d="M307.5,70.32c3.33,2.14-1.77,8.55-4.73,13.07-1.16,1.75-.09,2.3,1.77,2.3,2.94,0,7.88-1.37,9.26-1.59.05,0,.09-.01.13-.01,2.12,0,2.13,8.26,2.6,11.17.37,2.28,6.46,2.88,10.54,2.88,1.27,0,2.35-.06,3-.14.13-.02.25-.03.36-.03,2.36,0,2.21,3.37,3.8,3.71.06.01.13.02.21.02,1.87,0,8.91-3.4,10.59-4.23.03-.93.08-1.91.15-2.93-.37-4.49-.75-8.76-1.09-12.4l-1.29-10.68-7.71-6.07c-1.62-.28-3.75-.99-5.11-1.47-1.4.49-3.19.9-4.79.9-1.12,0-2.04-.24-2.79-.65-.17,0-.27,0-.27,0-.25-.19-.44-.42-.6-.66-.05-.05-.12-.1-.17-.15-.68-.81-.95-1.85-.76-2.97.28-1.54,1.26-4.01,1.98-5.68-.34-.32-.62-.68-.85-1.04-1-1.19-.92-2.38-.83-2.83,0-.06,0-.12,0-.19-.42.22-14.29,7.27-19.67,9.97-5.46,2.72,2.97,7.59,6.28,9.73Z" fill="#a17d23"/>
    <path d="M387.36,126.8c-.93-1.51-2.08-2.78-3.45-4.28-1.14-1.24-2.43-2.66-3.83-4.47l3.71,10.46c1.31-.68,2.56-1.29,3.58-1.71Z" fill="#a17d23"/>
    <path d="M368.99,86.85c.03.06.07.11.09.17l1.35,3.82c.28-1.7.61-3.29.84-4.28-.59.09-1.38.19-2.28.29Z" fill="#a17d23"/>
    <path d="M359.41,116.01c1.24,1.89,10.41,16.55,12.22,19.45,1.03-.6,2.17-1.21,3.35-1.3.22-.54.6-1,1.1-1.3.1-.06.24-.14.39-.24l-15.79-44.25c-.24-.66-.2-1.38.08-2-.78-.37-1.45-.92-1.88-1.74-.04-.07-3.81-7.41-1.83-11.13-.29-.29-.54-.62-.68-1.02l-8.09-23.44-12.04-5.32,3.09-20.18s.23.05.59.05c.16,0,.35-.01.55-.04.04-.11.07-.21.11-.32.46-1,1.28-1.76,2.34-2.14.39-.14.78-.2,1.19-.22,1.16-1.66,1.76-4.44-1.54-9.44,0,0-.24-.03-.62-.03-.97,0-2.87.23-4.28,1.82-1.96,2.22-3.2,5.25-3.47,6.68-.27,1.43-3.39,8.46-3.39,8.46,0,0-6.6,17.98-7.14,21.73,0,0-.05.17-.08.43,0,.12,0,.23-.02.35,0,.34.06.74.28,1.16.18.19.41.4.83.62.67.36,1.16.99,1.34,1.73.18.74.04,1.52-.39,2.15-1.18,1.74-1.98,3.93-2.01,4.96,1.46-.03,4.07-.19,5.97-.9.31-.12.63-.17.95-.17.4,0,.8.09,1.16.26,1.19.57,2.69,1.12,3.12,1.16.62,0,1.23.22,1.71.62l8.19,6.77c.54.45.89,1.09.96,1.79,0,.07.47,4.5,1.06,10.85l1.26,10.44s-.07.88-.14,2.22c.07.85.14,1.7.2,2.56.04.55-.08,1.08-.35,1.55-.06,3.84.11,8.35,1.06,10.45.04.02.08.03.12.05,2.64,1.27,8.95,4.5,10.51,6.91Z" fill="#a17d23"/>
    <path d="M323.6,50.51c-.01.1-.02.22-.02.35.01-.12.02-.23.02-.35Z" fill="#a17d23"/>
    <path d="M347.87,94.51c-.06,1.11-.12,2.54-.15,4.11.27-.46.4-1,.35-1.55-.07-.86-.14-1.71-.2-2.56Z" fill="#a17d23"/>
    <path d="M344.73,69.2l-8.19-6.77c-.48-.4-1.09-.62-1.71-.62-.43-.04-1.93-.59-3.12-1.16-.37-.18-.76-.26-1.16-.26-.32,0-.64.06-.95.17-1.89.71-4.51.87-5.97.9.03-1.04.83-3.22,2.01-4.96.43-.63.57-1.41.39-2.15-.18-.74-.67-1.37-1.34-1.73-.42-.22-.65-.43-.83-.62.18.35.46.69.91,1l.98,1.16s-2.14,4.64-2.51,6.68c-.16.93.72,1.27,1.95,1.27,1.49,0,3.47-.5,4.75-1.09,0,0,4.44,1.69,6.22,1.79l9.17,7.21,1.42,11.83c-.59-6.36-1.05-10.78-1.06-10.85-.07-.7-.42-1.34-.96-1.79Z" fill="#a17d23"/>
    <path d="M361.91,61.05c-.12,0-.29-.01-.48-.04l3.29,9.29c.2.57.2,1.19,0,1.76,2.06.47,4.08,1.1,5.3,1.48.06.02.12.04.17.05,2.13-.47,8.54-1.79,13.42-1.84-.23-.44-.41-.89-.52-1.35-.08-.4-.11-.8-.09-1.19-3.7-4.55-9.8-11.37-12.09-13.91-.37.17-.75.33-1.12.46-1.67,1.98-4.89,5.28-7.87,5.28Z" fill="#a17d23"/>
    <path d="M360.43,48.38c.13,3.62.88,7.56,1.63,8.76,1.2-.34,3.91-2.45,5.92-4.66.51-.56,1.23-.88,1.99-.88h0c.5,0,.94.17,1.35.42,4.4-2.84,7.42-8.64,5.77-14.36-1.66-5.79-7.23-8.42-12.13-8.42-1.02,0-2.02.12-2.95.34-5.34,1.3-6.77,8.67-6.53,12.95.08,1.52.54,2.52,1.07,3.22l1.25.03c1.43.03,2.58,1.17,2.63,2.59Z" fill="#a17d23"/>
    <path d="M358.82,47.21s.02.21.04.55c.13.2.22.41.23.66.04,1.2.14,2.39.29,3.51.11.73.24,1.5.4,2.35.35,1.74.81,3.12,1.28,3.78.25.19.53.29.84.29,2.4,0,6.29-4.91,6.29-4.91,1.09-.31,2.14-.8,3.12-1.43-.41-.25-.86-.42-1.35-.42h0c-.76,0-1.48.32-1.99.88-2.01,2.21-4.72,4.32-5.92,4.66-.76-1.2-1.5-5.14-1.63-8.76-.05-1.42-1.2-2.56-2.63-2.59l-1.25-.03c.98,1.27,2.26,1.45,2.26,1.45Z" fill="#a17d23"/>
    <path d="M360.23,56.54c.17.79.47,1.25.83,1.53-.48-.66-.93-2.04-1.28-3.78.13.72.28,1.46.45,2.25Z" fill="#a17d23"/>
    <path d="M358.86,47.76c.06.73.21,2.2.52,4.17-.15-1.12-.25-2.32-.29-3.51,0-.25-.1-.47-.23-.66Z" fill="#a17d23"/>
    <path d="M351.14,45.64h.06l1.96.04-7.49-21.2c-.1-.29-.29-.53-.53-.69-.29.28-.55.5-.76.68l-.26.23c-.34.31-.71.56-1.1.78l7.04,20.41c.34-.15.71-.24,1.09-.24Z" fill="#a17d23"/>
    <path d="M358.92,71.61l.28-.03c-.24-.46-.52-.97-.82-1.55l.55,1.58Z" fill="#a17d23"/>
    <path d="M344.37,24.47c.21-.18.47-.41.76-.68-.24-.17-.52-.26-.82-.26-.16,0-.31.02-.47.08-.75.28-1.12,1.09-.85,1.83l.02.04c.4-.22.77-.48,1.1-.78l.26-.23Z" fill="#a17d23"/>
    <path d="M351.99,48.61c2.99,7.82,5.08,11.43,6.61,14.07.62,1.06,1.15,2,1.62,2.99l-6.1-17.27-2.29-.05c.05.1.13.17.17.27Z" fill="#a17d23"/>
    <path d="M360.22,65.67c-.47-.99-1-1.92-1.62-2.99-1.52-2.64-3.62-6.25-6.61-14.07-.04-.1-.12-.17-.17-.27h-.69c2.85,9.96,8.05,17.55,8.05,17.55,1.26,2.3,2.24,4.16,2.86,5.33h.13s-1.96-5.56-1.96-5.56Z" fill="#a17d23"/>
    <path d="M351.14,45.64c-.38,0-.75.09-1.09.24l.41,1.18.12.05s0,0,0,0c.18-.08.37-.13.56-.13,0,0,1.16.03,2.5.06l-.48-1.35-1.96-.04h-.06Z" fill="#a17d23"/>
    <path d="M357.95,67.13c-.44-.97-.97-1.89-1.61-2.99l2.03,5.88c.3.57.58,1.08.82,1.55l1.13-.14c-.61-.91-1.51-2.38-2.38-4.3Z" fill="#a17d23"/>
    <path d="M350.57,47.12s0,0,0,0l-.12-.05.04.11s.05-.04.09-.06Z" fill="#a17d23"/>
    <path d="M360.33,71.44l.29-.04c-.62-1.17-1.51-2.85-2.61-4.86-.05-.08-.83-1.21-1.93-3.14l.26.75c.64,1.1,1.17,2.02,1.61,2.99.87,1.92,1.77,3.39,2.38,4.3Z" fill="#a17d23"/>
    <path d="M351.83,48.34l2.29.05-.48-1.36c-1.34-.03-2.49-.06-2.5-.06-.2,0-.39.05-.56.13.55.25.97.7,1.25,1.22Z" fill="#a17d23"/>
    <path d="M353.28,55.27c1.73,3.88,3.09,6.24,4.16,8.09.67,1.16,1.25,2.16,1.74,3.22,1.04,2.31,2.15,3.96,2.66,4.67l.21-.03c-.62-1.17-1.6-3.04-2.86-5.33,0,0-5.2-7.59-8.05-17.56h.69c-.28-.51-.7-.96-1.25-1.21-.03.01-.06.04-.09.06l2.8,8.1Z" fill="#a17d23"/>
    <path d="M358.01,66.54c1.1,2.01,1.99,3.69,2.61,4.86l1.21-.15c-.5-.7-1.61-2.36-2.66-4.67-.48-1.06-1.07-2.07-1.74-3.22-1.07-1.85-2.43-4.21-4.16-8.09l2.8,8.12c1.1,1.93,1.87,3.07,1.93,3.14Z" fill="#a17d23"/>
    <path d="M391.91,81.98c.59-2.42.27-3.58-2.61-5.24-1.03-.59-1.91-1.17-2.67-1.73-.29.13-.59.23-.92.26-4.72.33-12,.97-13.39,1.34-.33.09-.7.13-1.13.13-2.25,0-7.94-1.3-9.06-1.56-.12-.02-.23-.07-.34-.12-.21.06-.43.09-.66.09-.01,0-.27.02-.93.12-.08,1.54.37,4.87,1.36,7.79,0,0,.61.59,3.24.59,2.91,0,6.06-.73,6.09-.74.2-.05.41-.07.62-.07.71,0,1.4.28,1.9.79.19.19.34.41.46.65,1.29.25,3.21.5,5.8.5.46,0,.96-.01,1.46-.03.42-.3.92-.49,1.45-.51,4.1-.18,8.59-1.26,9.34-2.25Z" fill="#a17d23"/>
    <path d="M361.27,83.39c.4.77,2.01,1.01,3.86,1.01,3.04,0,6.75-.65,6.75-.65,0,0,.66.26,2,.52-.12-.23-.27-.45-.46-.65-.51-.51-1.2-.79-1.9-.79-.21,0-.41.02-.62.07-.03.01-3.18.74-6.09.74-2.63,0-3.24-.59-3.24-.59-.99-2.92-1.44-6.24-1.36-7.79.66-.1.92-.12.93-.12.23,0,.45-.04.66-.09-.49-.19-.91-.51-1.22-.93-.01,0-.03,0-.04,0-3.03,0-.32,7.24.74,9.27Z" fill="#a17d23"/>
    <path d="M370.09,76.37c-.7-.18-4.18-1.36-7.19-1.94-.31.29-.68.51-1.1.62.11.04.22.09.34.12,1.11.26,6.8,1.56,9.06,1.56.44,0,.8-.04,1.13-.13,1.39-.37,8.67-1.01,13.39-1.34.33-.03.63-.12.92-.26-.19-.14-.36-.27-.53-.41-.68-.1-1.42-.15-2.24-.15-5.58,0-13.77,1.93-13.77,1.93Z" fill="#a17d23"/>
    <path d="M361.79,75.05c.42-.11.79-.33,1.1-.62-.8-.15-1.57-.28-2.25-.31h-.07c.31.42.73.74,1.22.93Z" fill="#a17d23"/>
    <path d="M374.46,138.38c-.77.4-1.55.65-2.34.65-1.45,0-2.6-.7-3.2-1.35-.1-.11-.18-.22-.26-.34l-12.99-19.98c-1.32-.89-5.25-3.55-7.54-4.98-.32-.2-.62-.49-.89-.82-4.63.24-11.41,1.46-15.97,3.44-2.11.91-4.21,2.13-6.17,3.99.18.73.07,1.52-.37,2.16l-3.27,4.79c-.41.61-1.04.98-1.72,1.11-.33.78-.65,1.59-.94,2.46-3.03,8.9,2.22,25.03,3.38,27.97,1.16,2.93-.45,5.43-3.03,7.29-1.8,1.31-2.38,3.68-2.54,5.76,6.45-3.29,18.76-9.24,30.37-13.04.03-.02.05-.04.08-.06.77-.55,1.93-1.2,3.12-1.2.23,0,.46.03.67.08,6.43-1.84,12.41-2.82,16.73-2.04,1.83.33,3.51.73,5.09,1.18.08-.01.17-.03.24-.04.38-4.48,1.11-12.45,1.54-17.03Z" fill="#a17d23"/>
    <path d="M372.49,138.07c-.33.19-.64.26-.94.26-1.08,0-1.91-.98-1.91-.98,0,0-11.13-17.81-12.47-19.86-1.33-2.05-9.43-5.97-9.43-5.97-.15,0-.34.02-.5.03.27.33.57.62.89.82,2.29,1.43,6.22,4.09,7.54,4.98l12.99,19.98c.08.12.17.23.26.34.59.65,1.75,1.35,3.2,1.35.79,0,1.57-.25,2.34-.65.05-.52.09-1,.13-1.42-.66.24-1.44.72-2.1,1.11Z" fill="#a17d23"/>
    <path d="M347.06,157.43s-.06.04-.08.06c1.31-.42,2.6-.82,3.88-1.18-.22-.05-.44-.08-.67-.08-1.19,0-2.35.65-3.12,1.2Z" fill="#a17d23"/>
    <path d="M389.63,133.39c-.2-1.18-.44-2.17-.72-3.08-.7.16-1.88.59-3.91,1.66l4.21,11.89c.66-3.15,1.02-6.82.42-10.47Z" fill="#a17d23"/>
    <path d="M381.98,155.37c-.5-.68-.65-1.55-.41-2.36.23-.79.81-1.41,1.57-1.72,0-.01-.02-.02-.02-.04l-4.58-12.83s0,.03,0,.05c-.27,1.8-1.2,11.88-1.55,15.91.01.69-.21,1.39-.63,1.98-.06.09-.15.16-.22.24,3.83,1.47,6.76,3.33,8.89,5.42.15-.62.31-1.25.46-1.9l-3.51-4.76Z" fill="#a17d23"/>
    <path d="M388.54,129.22c-1,.4-2.39,1.08-3.85,1.85l.32.89c2.02-1.07,3.21-1.5,3.91-1.66-.12-.38-.24-.74-.37-1.09Z" fill="#a17d23"/>
    <path d="M376.98,154.38c.35-4.03,1.28-14.11,1.55-15.91,0-.02,0-.04,0-.05l-.76-2.12c-.15.1-.3.19-.46.29-.02.24-.04.51-.07.81.03.38-.02.71-.04.87-.04.24-.09.63-.14,1.1-.46,4.94-1.2,12.95-1.53,16.99.21.08.39.16.6.24.07-.08.15-.15.22-.24.42-.59.64-1.29.63-1.98Z" fill="#a17d23"/>
    <path d="M377.32,136.59c.16-.1.31-.2.46-.29l-.34-.95c-.02.22-.06.66-.12,1.24Z" fill="#a17d23"/>
    <path d="M377.21,138.27c.03-.16.07-.49.04-.87-.05.58-.11,1.23-.18,1.97.05-.47.1-.86.14-1.1Z" fill="#a17d23"/>
    <path d="M442.77,123.38c4.43.7,10.51,3.97,11.46,5.02.93,1.06,2.09,2.92,3.15,3.51,1.01.56.2,7.41,2.98,7.41.13,0,.27-.01.41-.04,3.27-.7,9.12-1.64,6.31-5.5-2.8-3.85-5.96-8.52-10.28-10.98-3.66-2.08-12.06-7.45-17.8-7.45-1.02,0-1.96.17-2.77.56-4.07,1.95-8.94,4.22-11.06,5.21.22,2.13.25,4.11.12,5.9,2.23-.29,5.16-.63,7.71-.82l1.06-.08c.45-.04.9-.07,1.35-.1,1.24-1.06,3.61-2.71,6.34-2.71.34,0,.68.03,1.02.08Z" fill="#a17d23"/>
    <path d="M404.54,79.32c-.67-2.22.82-2.61,2.88-2.61.42,0,.87.02,1.34.04,2.69.11,7.01,3.74,9.35,3.86h.14c2.37,0,6.88-2.95,6.88-4.56s-2.69-4.79-4.68-4.79-9.22-4.33-9.22-4.33c.23-3.27-8.53-4.21-7.13-6.43,1.4-2.22.59-2.45.59-2.45-8.42.46-17.18,8.06-18.59,10.05-.1.14-.15.29-.21.44.82,1.05,1.5,1.95,1.92,2.6.23.36.35.76.39,1.16,3.57,1.11,7.91,4.29,7.84,8.21-.04,2.28-1.45,5.2-7.96,6.23-1.84.29-3.6.46-5.33.57,1.58,11.1-2.46,21.1-3.45,23.78,4.5,5.37,10.26,12.32,11.08,13.38,1.04,1.32,1.88,2.41,1.47,3.77.78,1.65,2.29,6.15.59,14.11-.34,1.61-.81,3.68-1.35,5.97l.44-.17c.3-.11.62-.17.93-.17.57,0,1.14.18,1.61.54.74.55,1.13,1.43,1.06,2.34l-.07.97,9.36-3.24c1.21,1.43,2.4,1.88,3.4,1.88,1.71,0,2.91-1.29,2.91-1.29,0,0,23.03-11.11,25.83-12.51.32-.16.71-.24,1.14-.24,3.3,0,9.31,4.33,11.48,7.01,2.45,3.04,2.22,4.32,2.57,6.2.34,1.88-1.05,2.22-2.11,4.21-1.06,1.99,6.08,6.67,7.83,7.25.25.09.48.13.68.13,1.14,0,1.37-1.7,1.77-8.08.47-7.48-9.12-17.65-13.2-21.5-2.66-2.51-5.58-3.09-8.6-3.09-.54,0-1.09.04-1.64.07-.02,0-.04.03-.05.05-.44.48-1.04.78-1.68.86l-10.64,1.17c-.1.01-.2.02-.29.02-.61,0-1.19-.21-1.67-.59-.05.01-.08.01-.08.01,0-.02,0-.05.01-.07-.1-.09-.21-.17-.3-.28-.57-.67-.78-1.58-.56-2.44.22-.82.25-3.55.15-5.6-.04-.82.3-1.6.89-2.13-.81-5.58-2.95-12.35-7.32-19.38-7.84-12.62-9.58-18.24-10.41-20.92Z" fill="#a17d23"/>
    <path d="M390.3,126.55c.47.21.88.54,1.17.99.05.09.2.36.37.72.41-1.37-.43-2.45-1.47-3.77-.83-1.06-6.59-8.01-11.08-13.38-.16.41-.24.66-.21.7,4.7,7.91,8.75,9.88,11.23,14.74Z" fill="#a17d23"/>
    <path d="M387.79,71.14c-.41-.65-1.09-1.56-1.92-2.6-.51,1.14.04,2.31,1.38,3.52.3.06.61.15.93.25-.05-.41-.17-.81-.39-1.16Z" fill="#a17d23"/>
    <path d="M388.18,72.82c.7.52,1.53,1.05,2.46,1.59,3.86,2.22,4.8,4.56,3.86,8.3-.93,3.75-11.81,4.21-11.81,4.21.02.14.03.27.05.41,1.72-.11,3.48-.28,5.33-.57,6.5-1.03,7.92-3.95,7.96-6.23.07-3.92-4.27-7.11-7.84-8.21.02.17.01.34,0,.51Z" fill="#a17d23"/>
    <path d="M388.18,72.3c-.32-.1-.62-.18-.93-.25.28.25.58.5.92.76.01-.17.02-.34,0-.51Z" fill="#a17d23"/>
    <path d="M391.37,129.16c.36,1.11.67,2.34.91,3.79.94,5.7-.21,11.36-1.48,15.39l.03.08.25-.09c.54-2.29,1.01-4.36,1.35-5.97,1.7-7.97.18-12.47-.59-14.11-.05.16-.1.31-.18.48-.07.16-.19.29-.29.42Z" fill="#a17d23"/>
    <path d="M390.3,126.55c.4.78.76,1.64,1.07,2.61.1-.14.21-.27.29-.42.08-.17.13-.32.18-.48-.17-.36-.31-.63-.37-.72-.29-.45-.7-.77-1.17-.99Z" fill="#a17d23"/>
    <path d="M424.12,130.71l10.64-1.17c.64-.07,1.24-.38,1.68-.86.02-.01.03-.04.05-.05-1.09.05-2.2.14-3.31.22-4.48.33-10.28,1.17-11.02,1.27.47.38,1.06.59,1.67.59.09,0,.2,0,.29-.02Z" fill="#a17d23"/>
    <path d="M421.38,121.75c.1,2.05.08,4.78-.15,5.6-.22.86,0,1.77.56,2.44.09.11.2.19.3.28.6-2.43.8-6.07.17-10.46-.59.53-.92,1.31-.89,2.13Z" fill="#a17d23"/>
    <path d="M317.25,116.12c-1.44-2.2-4.42-4.77-8.62-4.77-1.59,0-3.36.37-5.29,1.27-7,3.27-13.78,12.85-13.54,26.53.23,13.67-6.79,23.6-8.31,24.66,0,0,8.18-2.58,12.28-11.81,4.09-9.23,10.64-19.05,13.09-22.08,2.06-2.57,7.03-5.87,10.58-5.87.25,0,.47.03.71.07.95-1.91,1.98-3.51,3.06-4.86-1.13-.43-2.76-1.32-3.95-3.13Z" fill="#a17d23"/>
    <path d="M320.72,122.26c.31-.5.63-.97.96-1.41l.83-1.22s-.55-.09-1.31-.38c-1.08,1.35-2.12,2.96-3.06,4.86.39.06.76.15,1.1.31l1.48-2.16Z" fill="#a17d23"/>
    <path d="M320.72,122.26l.96-1.41c-.33.44-.65.91-.96,1.41Z" fill="#a17d23"/>
    <path d="M374.03,109.03c-1.02-1.21-1.76-2.08-2.04-2.37-1.1-1.2-1.85-5.46-2.02-9.09l-3.42-9.66-3.33-.45,15.61,43.78c.78-.45,1.65-.94,2.56-1.45l-7.35-20.76Z" fill="#a17d23"/>
    <path d="M372.7,105.27l-.45-1.28c.15.53.3.96.45,1.28Z" fill="#a17d23"/>
    <path d="M374.03,109.03l-1.33-3.76c-.15-.32-.3-.75-.45-1.28l-2.28-6.42c.17,3.62.92,7.89,2.02,9.09.28.3,1.02,1.17,2.04,2.37Z" fill="#a17d23"/>
    <path d="M387.97,148.38l-5.35-15.09c-.75.44-1.6.95-2.52,1.52l5.54,15.53.68-.25,1.19-.44c.15-.39.3-.82.45-1.28Z" fill="#a17d23"/>
    <path d="M382.3,132.37c-.92.51-1.8,1.01-2.55,1.45l.36,1c.92-.57,1.77-1.08,2.52-1.52l-.33-.92Z" fill="#a17d23"/>
    <path d="M378.83,131.24l.35.98c.82-.51,1.67-1.02,2.53-1.51l-.33-.92c-.9.51-1.78,1-2.56,1.45Z" fill="#a17d23"/>
    <path d="M381.71,130.71c-.87.5-1.71,1-2.53,1.51l.11.31c.76-.45,1.63-.94,2.55-1.45l-.13-.37Z" fill="#a17d23"/>
    <path d="M382.17,132.01c-.78.45-1.63.97-2.52,1.52l.1.29c.75-.43,1.63-.94,2.55-1.45l-.13-.36Z" fill="#a17d23"/>
    <path d="M379.29,132.53l.36,1c.89-.55,1.74-1.07,2.52-1.52l-.32-.93c-.92.5-1.79,1-2.55,1.45Z" fill="#a17d23"/>
    <path d="M387.97,148.38c-.15.46-.3.88-.45,1.28l.54-.2c.04-.16.08-.33.12-.49l-.21-.58Z" fill="#a17d23"/>
    <path d="M388.18,148.97c-.04.16-.08.32-.12.49l.25-.09-.14-.4Z" fill="#a17d23"/>
    <path d="M389.09,156.7c-.23.96-.46,1.91-.7,2.84l3.11,4.21.59-8.03-2.68.93c-.11.04-.22.03-.32.05Z" fill="#a17d23"/>
    <path d="M386.09,153.05l-1.95.72,2.18,2.95c.07-.28.14-.56.2-.84,0,0-.01-.01-.02-.02-.67-.78-.82-1.87-.42-2.81Z" fill="#a17d23"/>
    <path d="M388.54,156.8c-.28,0-.56-.06-.82-.15-.12.5-.24.99-.36,1.48l1.04,1.41c.24-.94.47-1.89.7-2.84-.19.04-.37.1-.55.1Z" fill="#a17d23"/>
    <path d="M386.32,156.73l1.04,1.41c.12-.5.24-.99.36-1.48-.45-.14-.87-.4-1.2-.77-.07.28-.13.56-.2.84Z" fill="#a17d23"/>
    <path d="M392.31,152.81l.16-2.12-2.12.79c-.17.72-.34,1.45-.52,2.19l2.48-.86Z" fill="#a17d23"/>
    <path d="M388.54,154.11l1.28-.44c.17-.74.35-1.47.52-2.19l-.75.28c-.6,1.47-1.05,2.35-1.05,2.35Z" fill="#a17d23"/>
    <path d="M389.45,155.21c-.12.5-.24,1-.36,1.49.11-.02.22-.01.32-.05l2.68-.93.11-1.46-2.75.95Z" fill="#a17d23"/>
    <path d="M386.5,155.86s.01.01.02.02c.27-1.1.54-2.2.79-3.28l-1.23.45c-.4.94-.26,2.03.42,2.81Z" fill="#a17d23"/>
    <path d="M388.54,155.45c-.17,0-.34-.04-.5-.11-.11.44-.21.87-.32,1.31.26.08.54.15.82.15.19,0,.37-.06.55-.1.12-.49.24-.99.36-1.49l-.47.17c-.14.05-.29.08-.44.08Z" fill="#a17d23"/>
    <path d="M387.52,154.98c-.36-.41-.43-1.01-.17-1.5,0-.02.21-.41.51-1.09l-.52.2h-.02c-.26,1.09-.52,2.18-.79,3.29.33.37.75.62,1.2.77.1-.44.21-.88.32-1.31-.19-.08-.37-.19-.51-.36Z" fill="#a17d23"/>
    <path d="M389.82,153.66c-.13.51-.25,1.03-.37,1.55l2.75-.95.1-1.46-2.48.86Z" fill="#a17d23"/>
    <path d="M388.54,154.11s.45-.88,1.05-2.35l-.3.11s-.03.02-.05.03l-.42.15c-.26,1.08-.52,2.19-.79,3.29.16.07.33.11.5.11.15,0,.29-.03.44-.08l.47-.17c.12-.52.24-1.03.37-1.55l-1.28.44Z" fill="#a17d23"/>
    <path d="M387.35,153.49c-.25.49-.19,1.08.17,1.5.14.17.32.28.51.36.27-1.11.53-2.21.79-3.29l-.98.35c-.3.68-.5,1.07-.51,1.09Z" fill="#a17d23"/>
    <polygon points="387.33 152.59 387.85 152.4 387.85 152.4 387.33 152.59" fill="#a17d23"/>
    <path d="M388.83,152.04l.42-.15s.03-.03.05-.03l-.46.17h0Z" fill="#a17d23"/>
    <polygon points="387.85 152.4 387.85 152.4 388.83 152.04 388.83 152.04 387.85 152.4" fill="#a17d23"/>
    <path d="M336.29.5c-.18,0-.37.03-.55.11-.73.3-1.08,1.13-.78,1.86l2.34,6.89,2.63-1.09-2.33-6.89c-.23-.55-.76-.88-1.31-.88Z" fill="#a17d23"/>
    <path d="M304.91,174.68s16.87-6.39,16.87-18.92,7.67.26,7.67.26c0,0-6.4,17.12-24.54,18.66Z" fill="#a17d23" fill-rule="evenodd"/>
  </g>
  <g>
    <path d="M164.9,177.49l.11-.2-3.58-1.9c-.12.14-.24.27-.37.41,1.86.84,3.19,1.41,3.84,1.69Z" fill="#a17d23"/>
    <path d="M142.87,89.9c.31.08.8.22,1.39.39,1.84.53,4.91,1.42,6.43,1.42.44,0,.56-.08.56-.08.03-.44-.03-1.16-.09-1.85-.09-1.08-.18-2.11.23-2.74.11-.19.27-.38.43-.59.29-.37.68-.86.62-1.14-.04-.17-.29-.33-.44-.41l-5.45-1.65c-.39,0-1.71.04-2.44.55-.59.41-1.84,3.91-1.53,5.6.03.18.11.47.28.52Z" fill="#a17d23"/>
    <path d="M146.25,81.01h.09c5.23.8,9.24,3.41,10.04,3.96l3.92.08c-.92-1.32-2.82-3.32-3.61-4.1l-.1-.11-.04-.14c-.03-.14-3.65-14.54-5.64-19.15-1.57-3.65-7.12-8.6-9.26-10.42l-.2,30.1,1.62.4,3.18-.63Z" fill="#a17d23"/>
    <path d="M140.66,82.87c-.29.29-.7.43-1.22.43-1.08,0-2.46-.64-2.83-.83-.04,0-.09,0-.14,0-.67,0-1.52.24-1.76,1.41-.47,2.34-.24,2.85.37,3.02,1.12.31,1.75.42,1.75.42l.68.1-.28.63c-.03.08-3.35,7.73-2.2,25.2.15,2.19.29,4.25.43,6.18.98,14.03,1.47,21.08-1.28,24.42l-.22.26-3.09-.83s-.27.1-.73.75c-.12.17-.25.34-.37.49-.58.76-.93,1.22-.62,2.5.41,1.73.53,2.26,2.32,2.83,1.87.59,16.6,5,18.57,5.59.13.04.21.06.22.07.05.02.5.19,1.02.19s.92-.18,1.19-.54l.11-.15c1.15-1.51,4.65-6.08,3.64-14.76-.2-1.74-.53-3.82-.87-6.02-1.52-9.69-3.6-22.97-.29-35.95l.52-1.26,4.04,1.29s.08.04.17.04c.21,0,.44-.22.65-.62.7-1.3,1.33-4.11,1.33-4.13l.13-.56.55.18s.77.25,1.49.25c.53,0,.86-.13.96-.38.28-.67,1.13-2.7.78-3.54-.06-.13-.14-.21-.27-.26-1.41-.54-1.98-.87-2-.88-.1-.07-1.13-1.01-2.32-1.01h-.15c-.49.05-1.43,0-2.49-.1-1.76-.15-3.82-.4-4.64-.5-.27.55-.8,1.97-.5,4.29.12.91-.05,1.64-.5,2.15-.46.52-1.16.78-2.1.78-.83,0-1.57-.21-1.6-.23-1.88-.3-8.25-1.49-8.49-3.53-.18-1.47.04-5.68,1.24-7.34-.24-.11-.53-.21-.78-.21s-.36.09-.42.15Z" fill="#a17d23"/>
    <path d="M150.04,155.45c-1.97-.59-16.71-5-18.57-5.59,1.87.59,16.6,5,18.57,5.59Z" fill="#a17d23"/>
    <path d="M139.44,83.3c.52,0,.93-.15,1.22-.43-.29.29-.7.43-1.22.43Z" fill="#a17d23"/>
    <path d="M160.95,87.4c-.5.04-1.44,0-2.49-.1,1.06.09,2,.15,2.49.1Z" fill="#a17d23"/>
    <path d="M153.31,91.09c.12.91-.05,1.64-.5,2.15-.46.52-1.16.78-2.1.78.94,0,1.64-.26,2.1-.78.45-.51.62-1.24.5-2.15Z" fill="#a17d23"/>
    <path d="M143.8,156.42l-1.7,9.98c3.39,1.83,6.88,3.62,10.38,5.35l-.95-13.8-7.73-1.53Z" fill="#a17d23"/>
    <path d="M131.96,160.66c1.46.87,2.91,1.71,4.34,2.52l1.34-8.62c-1.15-.14-3.93-.6-7.5-2.01-1.48-.59-2.53-1.56-3.08-2.87-1.09-2.62.09-5.67.34-6.26.75-1.77,2.43-2.6,4.35-2.12.32.08.59-.02.86-.31.86-.96,2.1-4.48.73-17.28-1.41-13.19-.7-22.9-.42-25.88-1.29.16-2.82-1.36-3.59-2.29l-.47.81c-1.03,1.83-2.25,1.35-2.4,1.28-2.27-.92-4.19-3.94-5.3-6.07.09,8.18.38,34.03.29,35.76-.02.37.06,1.44.16,2.8.44,5.94,1.35,18.31-1.76,22.5-.82,1.09-1.91,1.87-3.27,2.32,5.74,1.15,10.9,3.08,15.37,5.75Z" fill="#a17d23"/>
    <path d="M139.91,165.2c.74-4.75,1.31-8.44,1.5-9.68l-1.34-.42-1.53,9.34c.46.26.91.51,1.37.76Z" fill="#a17d23"/>
    <path d="M118.12,39.69c-.05-.77.05-1.67.45-2.66,1.07-2.68,2.8-6.23,6.61-9.95.12-.1,2.39-2.1,5.1-2.1,1.72,0,3.2.79,4.42,2.34,3.64,4.66,7.69,11.25,7.73,11.32l.08.13v.15c0,.38-.05,3.64-1.48,5.1l.33,4.28,1.9,1.26c.21-2.33.75-8.86.44-13.42-.4-6.16-4.17-16.3-12.58-17.27-.45-.05-.88-.08-1.3-.08-7.69,0-11.74,8.16-11.78,8.24-.02.04-2.08,4.49-1.47,14.03.38,6.03.02,9.14-.33,10.66l2.5-1.22.17-8.25c-.05-.07-.1-.16-.16-.28-.24-.46-.56-1.26-.62-2.29Z" fill="#a17d23"/>
    <path d="M118.12,39.69c-.05-.77.05-1.67.45-2.66-.4.99-.5,1.89-.45,2.66Z" fill="#a17d23"/>
    <path d="M129.76,27.21c-3.09.48-6.78,6.04-7.46,7.11.23.93,1.41,4.97,5.19,7,.54.29,1.14.54,1.78.74.55.16,1.08.24,1.57.24,4.08,0,5.75-5.54,6.22-7.53-1.19-2.34-4.6-7.92-7.3-7.57Z" fill="#a17d23"/>
    <path d="M122.3,34.32c.23.93,1.41,4.97,5.19,7-3.78-2.04-4.96-6.08-5.19-7Z" fill="#a17d23"/>
    <path d="M123,62c1.51,0,2.65.18,3.37.53,1.87.89,3.2,3.49,1.95,7.29,0,.03-.79,2.29-.93,3.43-.2,1.43-2.57,8.21-6.45,9.03.5,1.97,2.33,8.53,4.91,10.87.25.32.76.83,1.14.83.29,0,.53-.36.67-.67.35-.72.84-1.55,1.58-1.55.7,0,1.09.72,1.41,1.31l.16.3c.18.35.51.97.85,1.26.12.09.23.16.34.16.26,0,.62-.32.99-.89.3-.46.55-.92.75-1.38.61-1.37.82-2.65.89-3.29-.63-.17-1.7-.57-2.28-1.44-.41-.61-.51-1.33-.31-2.14.95-3.79,2.54-5.7,4.71-5.7.1,0,.22,0,.33.01l.14.04,1.73.67c.04-.08.1-.25.13-.62.07-1.29-.3-39.57-.32-41.78-.07-.18-.23-.59-.44-1.06-.62,2.51-2.46,7.18-7.56,7.18h-.3c-5.33-.19-8.11-4.77-9.21-7.18l-.52,1.73.34,23.17c.46-.04,1.17-.08,1.93-.08Z" fill="#a17d23"/>
    <path d="M138.33,37.2c.21.46.38.88.44,1.06-.07-.18-.23-.59-.44-1.06-.62,2.51-2.46,7.18-7.56,7.18,5.1,0,6.95-4.67,7.56-7.18Z" fill="#a17d23"/>
    <path d="M134.65,89.22c-.08.64-.29,1.92-.89,3.29.61-1.37.83-2.65.89-3.29Z" fill="#a17d23"/>
    <path d="M125.78,64.85c-.42-.61-1.16-.81-2.19-.64l-.08.02h-.09s-.22-.04-.55-.04c-1.22,0-3.38.36-4.08,2.8-1.06,3.72-1.84,11.18-.81,12.56.15.21.18.12.25.1.51-.13,1.01-.22,1.5-.3,1.87-.31,3.35-.56,4.44-3.44,2.05-5.41,2.64-9.54,1.6-11.06Z" fill="#a17d23"/>
    <path d="M186.67,182.99l-8.64-5.97-13.25-11.89.03-.27c.43-3.97,1.28-5.01,1.37-5.12l.13-.1c4.02-2.36,3.07-8.27,3.06-8.33l-.08-.47.45-.13s1.5-.42,3.19-.95c.17-.05.28-.16.37-.33.44-.83.02-2.65-.18-3.29-2.97-16.76-8.67-48.71-9.08-50.12-.11-.37-.21-.45-.21-.45-.03.04-.23.26-.38.48-.59,4.34-3.03,4.99-4.44,4.99-.73,0-1.38-.16-1.82-.31-1.35,5.28.2,20.68,1.36,32.02.35,3.5.66,6.52.85,8.91.79,9.82-4.43,14.77-5.63,15.77l1.23,15.54c1.91.91,3.6,1.71,5.05,2.37.29-.3.59-.61.87-.94l.27-.32,14.94,7.93,10.56.99Z" fill="#a17d23"/>
    <path d="M160.05,175.34c.29-.3.58-.62.86-.95-.28.34-.57.64-.87.94,0,0,0,0,0,0Z" fill="#a17d23"/>
    <path d="M92.71,154.09c1.36-.2,2.67-.36,3.91-.5.03,0,.05,0,.07,0,1.24-.13,2.39-.24,3.48-.32.09,0,.19-.01.29-.02,1.03-.07,1.98-.13,2.86-.17.15,0,.29-.01.43-.02.81-.03,1.54-.05,2.21-.06.08,0,.18,0,.26,0v-.32l.55.22.32.09h.19c1.13,0,2.01.03,2.59.06l-.23-.59.89.12c1.7.24,3.54.19,5.96-.17,3.53-.54,3.38-16.85,2.76-24.66-.1-1.31-.84-39.74-.95-45.36-.88.08-1.59-.19-2.13-.81-1.59-1.83-1-6.23-.98-6.42.66-10.8,2.65-14.29,3.2-15.06l.1-7.05c-1.55.47-5.48,1.91-7.24,5.03-1.08,1.92-2.05,5.18-3.17,8.96-1.23,4.14-2.63,8.84-4.5,12.71-2.57,5.28-4.28,32.95-3.72,50.54-.08.51-.13,1.01-.16,1.59-.09,2.39-.1,4.49-.11,6.33-.02,6.04-.02,9.68-3.25,12.27-1.19.95-2.6,1.92-4.2,2.9l.11.28.18.48c.1-.02.18-.02.28-.04Z" fill="#a17d23"/>
    <path d="M105.95,153c-.67.01-1.4.03-2.21.06.81-.03,1.54-.05,2.21-.06Z" fill="#a17d23"/>
    <path d="M96.61,153.59c-1.23.13-2.55.3-3.91.5,1.36-.2,2.67-.36,3.91-.5Z" fill="#a17d23"/>
    <path d="M103.31,153.08c-.89.04-1.83.09-2.86.17,1.03-.07,1.98-.13,2.86-.17Z" fill="#a17d23"/>
    <path d="M100.16,153.27c-1.09.08-2.25.19-3.48.32,1.24-.13,2.39-.24,3.48-.32Z" fill="#a17d23"/>
    <path d="M107.14,152.99h.13-.13Z" fill="#a17d23"/>
    <polygon points="92.14 153.36 92.25 153.64 92.14 153.36 92.14 153.36" fill="#a17d23"/>
    <polygon points="106.2 152.67 106.2 152.74 106.76 152.89 106.2 152.67" fill="#a17d23"/>
    <path d="M107.85,62.86c-7.74-6.39-12.67-16.04-12.67-26.83,0-19.18,15.6-34.79,34.78-34.79s34.79,15.61,34.79,34.79c0,10.32-4.52,19.6-11.68,25.98l-2.05-3.67c5.93-5.6,9.63-13.53,9.63-22.31,0-16.92-13.77-30.69-30.69-30.69s-30.7,13.77-30.7,30.69c0,9,3.89,17.1,10.07,22.72l-1.49,4.12Z" fill="#a17d23"/>
  </g>
  <path d="M0,186.61h0c3.73.57,471.11.68,475.64.12l-26.49-2.7-12.06-1.04-14.92.05c-8.19.03-15.01-.05-15.13-.16-.12-.12-.05-.66.17-1.22.71-1.86.83-6.39.22-8.75-1.38-5.39-8.09-15.48-10.3-15.48-.98,0-.96.16.43,3.76,1.68,4.36,2.35,7.15,2.57,10.76.27,4.42-.38,6.3-3.12,8.97l-2.06,2.02h-11.96l1.36-1c2.08-1.51,3.95-3.76,4.98-5.96.79-1.69.92-2.43.92-5.27,0-4.05-.82-6.51-3.25-9.71-2.91-3.86-6.88-6.4-12.23-7.86-4-1.1-13.72-1.1-19.14,0-11.76,2.37-20.35,5.94-42.62,17.73-10.12,5.35-17.85,8.56-25.01,10.36-2.23.57-4.26,1.02-4.54,1.02s.92-.76,2.68-1.7c5.86-3.12,10.15-6.64,15.08-12.38,6.68-7.79,10.8-14.76,9.39-15.92-.63-.53-1.53.34-3.77,3.67-2.28,3.37-4.88,6.49-8.64,10.35-8.84,9.05-17.92,14.21-28.54,16.19-2.95.55-5.23.65-14.51.65h-11.02l-1.93-.91c-3.09-1.45-4.95-3.34-5.7-5.78-.23-.74-.16-.8,1.01-.8,4.46,0,9.34-5.98,6.74-8.26-1.4-1.22-3.37-1.89-5.53-1.89h-2.06v-8.72c0-13.65,1.08-21.85,3.52-26.87,1.5-3.06,5.08-6.78,7.8-8.1,5.31-2.58,14.34-2.12,21.11,1.1,3.12,1.48,6.78,5.17,8.47,8.54,1.14,2.27,1.22,2.65,1.22,5.75,0,2.7-.15,3.63-.79,5.04-1.95,4.23-5.29,6.66-9.16,6.66-2.7,0-5.3-.89-6.29-2.16-.49-.63-.7-1.42-.7-2.61,0-1.56.13-1.84,1.48-3.08.82-.76,2.33-2.04,3.4-2.88,1.4-1.11,2-1.86,2.23-2.78.41-1.63-.23-3.28-1.55-3.97-1.12-.57-3.73-.67-5.03-.18-1.44.54-4.03,3.14-5.04,5.07-.83,1.59-.92,2.13-.92,5.43s.09,3.84.93,5.43c2.39,4.52,7.49,6.81,13.38,6.03,8.06-1.08,14.74-9.92,13.5-17.85-.51-3.16-2.69-7.3-5.44-10.29-3.66-3.99-8.29-6.7-13.72-8.02-3.14-.76-10.85-.77-14.41,0-6.52,1.39-12.16,5.66-14.9,11.32-.75,1.57-1.46,2.87-1.55,2.87s-.8-1.3-1.56-2.87c-2.74-5.66-8.37-9.93-14.89-11.32-3.56-.77-11.28-.75-14.42,0-5.43,1.32-10.06,4.02-13.73,8.02-2.74,2.98-4.92,7.13-5.42,10.29-1.25,7.93,5.43,16.77,13.49,17.85,5.9.78,10.99-1.51,13.38-6.03.84-1.58.94-2.12.94-5.43s-.1-3.84-.93-5.43c-1.01-1.93-3.6-4.53-5.04-5.07-1.29-.49-3.91-.4-5.02.18-1.33.68-1.97,2.33-1.56,3.97.24.92.84,1.67,2.23,2.78,1.07.84,2.58,2.12,3.41,2.88,1.37,1.24,1.5,1.51,1.5,3.08,0,1.2-.22,1.98-.71,2.61-1.01,1.27-3.62,2.16-6.32,2.16-3.87,0-7.21-2.43-9.16-6.66-.65-1.41-.8-2.34-.8-5.04,0-3.1.08-3.48,1.22-5.75,1.69-3.36,5.35-7.05,8.46-8.54,6.76-3.21,15.8-3.68,21.11-1.1,2.72,1.32,6.3,5.04,7.81,8.1,2.47,5.02,3.55,13.22,3.55,26.87v8.72h-2.1c-3.19,0-6.29,1.67-6.29,3.4,0,3,4.16,6.76,7.49,6.76,1.16,0,1.24.06,1.02.8-.75,2.44-2.62,4.33-5.71,5.78l-1.93.91h-11.02c-12.19,0-15-.31-21.15-2.34-10.75-3.55-22.2-12.87-30.59-24.89-2.48-3.56-3.1-4.16-3.77-3.62-.59.49-.26,1.69,1.28,4.65,1.49,2.86,4.34,6.79,8.16,11.25,4.92,5.74,9.21,9.26,15.07,12.38,1.76.94,2.97,1.7,2.68,1.7s-2.32-.45-4.55-1.02c-7.15-1.8-14.88-5.01-25-10.36-22.27-11.79-30.87-15.36-42.62-17.73-5.43-1.09-15.14-1.09-19.14,0-5.36,1.46-9.32,4.01-12.23,7.86-2.43,3.21-3.25,5.66-3.25,9.71,0,2.83.13,3.58.91,5.27,1.02,2.2,2.91,4.45,4.98,5.96l1.37,1h-11.95l-2.07-2.02c-2.74-2.68-3.39-4.55-3.12-8.97.22-3.6.88-6.39,2.57-10.76,1.39-3.6,1.41-3.76.43-3.76-2.2,0-8.92,10.09-10.31,15.48-.6,2.37-.48,6.89.23,8.75.22.56.29,1.1.17,1.22-.12.12-6.94.19-15.13.16l-14.91-.05M170.02,181.86l3.85,1.4-13.12-.08c-7.22-.05-23.77-.12-36.79-.17l-23.68-.08,1.49-1.49c.82-.82,1.87-2.26,2.35-3.23.75-1.52.86-2.23.86-5.43s-.1-3.91-.84-5.41c-.47-.97-1.49-2.4-2.3-3.23-1.34-1.38-1.58-1.5-3.18-1.5-.96,0-1.92.19-2.16.43-.75.75-.5,2.87.51,4.33,2.81,4.06,3.27,4.84,3.6,6.03.94,3.36.19,5.34-2.52,6.63-4.39,2.09-11.17.81-14.35-2.71-2.16-2.39-2.53-3.36-2.53-6.69,0-2.63.13-3.24,1.14-5.36,2.02-4.23,6.82-7.88,12.01-9.12,3.25-.77,9.36-1.03,13.25-.55,8.57,1.04,15.18,3.01,25.6,7.6l4.46,1.97-2.36.76c-3.96,1.28-5.03,1.92-4.91,2.93.11.88.18.9,3.94,1.12,4.23.25,10.5,1.32,14.32,2.45,1.35.4,5.86,2.36,9.99,4.36,4.12,1.99,9.26,4.26,11.37,5.03h0ZM350.13,182.93c-9.86,0-26.41.08-36.79.18l-18.88.19,3.84-1.42c2.11-.78,7.24-3.05,11.37-5.04,4.12-1.99,8.63-3.96,9.99-4.36,3.81-1.13,10.09-2.2,14.32-2.45,3.76-.22,3.83-.24,3.94-1.12.12-1.01-.94-1.66-4.9-2.93l-2.36-.76,4.46-1.97c10.41-4.59,17.03-6.56,25.6-7.6,3.89-.48,10-.22,13.25.55,5.2,1.24,10,4.89,12.01,9.12,1.01,2.13,1.14,2.73,1.14,5.36,0,3.33-.37,4.3-2.53,6.69-3.18,3.52-9.95,4.79-14.35,2.71-2.71-1.29-3.46-3.27-2.52-6.63.33-1.19.79-1.97,3.6-6.03,1.01-1.46,1.26-3.58.51-4.33-.24-.24-1.2-.43-2.17-.43-1.6,0-1.85.12-3.18,1.5-.81.83-1.82,2.26-2.3,3.23-.74,1.5-.85,2.21-.85,5.41s.12,3.91.87,5.43c.48.97,1.53,2.41,2.35,3.23l1.48,1.49h-17.91Z" fill="#a17d23"/>
  <g display="none">
    <polygon points="184.08 49.59 184.08 49.58 184.08 49.58 184.08 49.59" fill="#a17d23"/>
    <path d="M233.2-7.16v-.28s.29.03.29.03c1.36.18,2.4.94,3.17,2.3.57-.68.9-1.65.91-2.7,0-.93-.22-1.78-.64-2.34-.89,1.28-2.01,1.93-3.41,1.98h-.3s.05-.29.05-.29c.21-1.39.97-2.43,2.33-3.16-.71-.57-1.7-.9-2.79-.9-.92,0-1.77.24-2.32.63,1.49,1.13,2.2,2.4,1.91,3.44l-.06.22-.22-.03c-1.36-.21-2.38-.97-3.12-2.31-1.19,1.47-1.15,3.8-.26,5.05.87-1.26,1.97-1.91,3.4-1.98h.3s-.04.29-.04.29c-.19,1.39-.96,2.43-2.34,3.17.73.58,1.73.9,2.8.9.9,0,1.74-.23,2.31-.63-1.45-1.12-2.01-2.08-1.98-3.37Z" fill="#a17d23"/>
    <path d="M283.26,40.23h.3s-.04.29-.04.29c-.19,1.38-.93,2.39-2.32,3.17.76.57,1.76.9,2.82.9.88,0,1.7-.23,2.28-.64-1.28-.86-1.94-1.97-1.99-3.35l-.02-.3.3.04c1.41.18,2.45.92,3.22,2.31,1.2-1.52,1.14-3.82.26-5.06-.88,1.27-1.99,1.92-3.39,1.98l-.3.02.04-.3c.18-1.39.93-2.41,2.32-3.18-.7-.57-1.71-.89-2.77-.89-.87,0-1.68.22-2.33.63,1.31.88,1.95,1.97,1.99,3.37v.31s-.29-.05-.29-.05c-.82-.13-1.5-.42-2.07-.89-.47-.39-.8-.86-1.13-1.44-1.18,1.53-1.12,3.83-.26,5.06.88-1.28,1.99-1.92,3.39-1.97Z" fill="#a17d23"/>
    <polygon points="232.71 -1.18 232.71 -1.19 232.71 -1.19 232.71 -1.18" fill="#a17d23"/>
    <path d="M191.96,43.16v.28c.15,2.84.56,5.66,1.25,8.39.81,3.3,2.04,6.47,3.64,9.44,2.3,4.23,5.47,8.11,9.44,11.54,5.64,4.88,12.23,8.11,19.58,9.59.21.04.31.05.51-.14,1-1.05,2.21-1.93,3.58-2.6-.32-.04-.62-.08-.94-.13-.91-.12-1.86-.25-2.78-.43-6.79-1.34-13.05-4.52-18.61-9.44-1.38-1.22-2.69-2.62-4-4.29-5.27-6.67-8.07-14.33-8.32-22.77-.07-2.33-.8-4.44-2.18-6.26-1.97-2.58-4.61-4.1-7.84-4.51-2.37-.3-4.68.14-6.87,1.31-.22.12-.29.18-.3.33-.09.97-.17,1.94-.26,2.92-.05.65-.12,1.3-.18,1.95,1.49-1.94,3.45-3.01,5.85-3.17.19-.01.38-.02.58-.02,3.53,0,6.64,2.36,7.57,5.73.22.76.25,1.53.28,2.28Z" fill="#a17d23"/>
    <path d="M265.91,68.72c.71-.81,1.42-1.71,2.25-2.83,3.56-4.91,5.96-10.43,7.13-16.41.05-.25.02-.36-.17-.53-1.06-.99-1.94-2.16-2.61-3.49-.13,1.5-.38,3.02-.75,4.64-1.53,6.69-4.7,12.64-9.42,17.67-4.25,4.55-9.5,7.92-15.59,10.01-3.42,1.17-6.98,1.86-10.6,2.04l-.54.03c-.76.03-1.55.07-2.29.21-3.56.68-6.51,2.98-8.07,6.32-1.56,3.32-1.45,7.01.29,10.15.13.25.29.35.57.38.48.04.96.1,1.44.15.55.06,1.08.12,1.62.16.48.04.95.07,1.43.09.09,0,.18,0,.27.01-1.9-1.39-2.99-3.27-3.22-5.57-.38-3.58,1.86-7.02,5.33-8.17.99-.33,1.99-.39,3.01-.42,2.69-.12,5.51-.52,8.36-1.2,3.41-.82,6.74-2.09,9.92-3.79,4.16-2.24,7.97-5.33,11.64-9.45Z" fill="#a17d23"/>
    <path d="M206.01,17.28c-6.68,7.72-9.76,16.75-9.16,26.86.18,2.95.74,5.86,1.66,8.66,2.17,6.58,5.82,12.09,10.85,16.39,7.18,6.13,15.52,9.24,24.77,9.24h0c.33,0,.66,0,.98-.01,2.32-.05,4.46-.3,6.54-.74,8.19-1.73,15.05-5.68,20.37-11.75,6-6.81,9.09-14.95,9.22-24.2,0-2.4-.29-5.26-.76-7.45-1.69-7.89-5.59-14.62-11.58-20-3.34-3-7.17-5.35-11.38-6.98-4.34-1.68-8.87-2.53-13.48-2.53-.35,0-.7,0-1.06.02-3.28.09-6.27.52-9.13,1.33-7.23,2.06-13.25,5.82-17.87,11.17ZM219.17,33.79c2.99,1.5,6.94,2.31,9.14,2.31h0c-.26-4.73-1.64-8.77-4.21-12.32-2.69-3.74-6.26-6.49-10.6-8.19l-.34-.13.24-.28c.45-.52.97-.98,1.6-1.43,1.26-.89,2.69-1.38,4.26-1.49,2.08-.13,4.11.31,6.36,1.34.6.28,1.19.6,1.76.92.25.14.5.27.75.4.07.04.13.07.2.11.04-.09.07-.18.1-.27.78-2.14,1.91-3.75,3.49-4.92.29-.22.6-.42.9-.61.14-.09.28-.17.41-.27.48-.29.95-.29,1.46,0,2.1,1.16,3.65,2.9,4.57,5.17.07.16.13.33.2.49.05.13.1.27.16.41.04-.02.07-.04.1-.06l.2-.12c2.08-1.25,4.03-2.04,5.96-2.4,2.51-.46,4.59-.16,6.47.92.78.45,1.61,1.15,2.18,1.82l.23.27-.33.13c-4.29,1.67-7.82,4.39-10.52,8.07-2.55,3.47-3.94,7.44-4.26,12.14,7.42-.19,16.56-4.74,20.49-14.57l.12-.3.34.25c.08.06.15.11.22.17,1.49,1.42,2.37,3.09,2.62,4.97.19,1.48.04,3.05-.45,4.66-.46,1.56-1.16,3.08-2.15,4.67-.05.07-.09.15-.15.23l.12.04c.3.11.58.22.87.34,2.28.93,4.02,2.45,5.16,4.51.26.46.25.92,0,1.39-1.16,2.11-2.97,3.65-5.36,4.59-.25.1-.5.19-.78.29l.15.26c1.32,2.14,2.11,4.04,2.47,5.99.43,2.32.18,4.3-.77,6.06-.42.79-1.01,1.53-1.85,2.34-.07.06-.15.09-.2.11l-.23.09-.1-.22c-2.24-5.4-5.93-9.47-10.98-12.08-2.83-1.47-6-2.31-9.46-2.52.12,7.45,4.69,16.6,14.74,20.51l.29.11-.16.26s-.03.05-.04.07c-.03.05-.05.11-.1.16-1.48,1.54-3.2,2.43-5.11,2.68-1.49.2-3.04.06-4.7-.43-1.57-.45-3.11-1.15-4.71-2.13l-.26-.15c-.04.08-.07.17-.1.25-.63,1.73-1.49,3.11-2.61,4.2-.64.63-1.39,1.17-2.28,1.66-.22.11-.44.17-.65.17-.22,0-.45-.06-.66-.18-2.12-1.15-3.68-2.89-4.63-5.19-.08-.2-.16-.4-.24-.6-.04-.11-.08-.21-.12-.32-.08.05-.16.1-.25.15-2.14,1.31-4.08,2.08-6.06,2.45-2.46.44-4.54.15-6.4-.92-.68-.39-1.35-.92-2.08-1.67-.05-.07-.07-.12-.1-.16l-.13-.25.24-.14c5.44-2.21,9.54-5.85,12.18-10.81,1.51-2.84,2.36-5.93,2.58-9.44-4.75.3-8.78,1.68-12.31,4.2-3.72,2.65-6.47,6.15-8.18,10.4l-.11.26-.25-.14c-.11-.05-.18-.08-.25-.15-2.04-1.93-2.96-4.3-2.75-7.06.17-2.07.84-4.09,2.12-6.39.19-.36.4-.71.61-1.07l.05-.09-.17-.07c-.29-.11-.57-.22-.85-.33-2.23-.92-3.94-2.41-5.09-4.45-.29-.51-.29-.98,0-1.48,1.14-2.03,2.86-3.52,5.09-4.44.33-.14.67-.27,1.04-.41,0,0-.01-.03-.02-.04l-.12-.2c-1.26-2.03-2.06-3.94-2.45-5.84-.26-1.27-.3-2.42-.14-3.54.27-1.91,1.2-3.62,2.76-5.06.04-.05.12-.08.17-.09l.21-.06.13.2c2.29,5.52,6.1,9.65,11.33,12.26Z" fill="#a17d23"/>
    <path d="M275.88,37.9c-.17-2.13-.56-4.38-1.2-6.87-2.09-8.17-6.5-15.07-13.5-21.08-.5-.43-1.05-.87-1.74-1.39-5.13-3.85-10.9-6.45-17.13-7.71-.22-.05-.31-.06-.5.14-.99,1.03-2.18,1.88-3.55,2.55.6.08,1.18.16,1.76.25l.28.05c.72.12,1.47.24,2.2.41,8.66,2.01,15.88,6.44,21.44,13.16,5.43,6.56,8.37,14.28,8.73,22.94.1,2.36.86,4.47,2.28,6.26,2.14,2.72,4.98,4.22,8.45,4.45,2.15.14,4.21-.32,6.16-1.38.24-.13.35-.23.37-.5.05-.74.13-1.48.21-2.21.05-.46.1-.92.14-1.39.03-.39.05-.78.06-1.18-1.88,2.47-4.39,3.55-7.45,3.2-3.72-.42-6.68-3.56-6.86-7.29-.03-.81-.1-1.61-.16-2.42Z" fill="#a17d23"/>
    <path d="M183.82,54.02h0c.46,0,.95-.03,1.44-.08,2.22-.23,4.26-1.13,6.08-2.67.15-.13.19-.2.15-.42-.2-.98-.36-1.98-.53-2.96l-.07-.41c-.03-.16-.04-.32-.07-.49-1.42,2.33-4.01,3.78-6.76,3.78-.74,0-1.49-.11-2.2-.31-3.79-1.09-5.6-4.43-5.69-7.06-.13-3.92.11-7.72.69-11.3.7-4.31,1.9-8.51,3.56-12.48,2.62-6.31,6.35-12.05,11.07-17.06,4.62-4.92,10.02-8.96,16.05-12.01,4.43-2.24,9.11-3.9,13.91-4.92.29-.06.49-.19.65-.45,1.06-1.65,2.49-3,4.23-4.02.07-.04.14-.08.2-.12-2.11.24-4.25.61-6.53,1.12-6.55,1.5-12.77,4.02-18.47,7.5-5.22,3.18-9.81,6.99-13.65,11.33-7.82,8.83-12.77,19.16-14.7,30.7-.73,4.36-.97,7.96-.73,11.32.17,2.48.98,4.67,2.41,6.52,2.31,2.98,5.33,4.49,8.96,4.49Z" fill="#a17d23"/>
    <path d="M196.42,22.97c-1.62,3.17-2.84,6.64-3.62,10.32-.07.33-.01.51.23.75,1,.94,1.84,2.1,2.5,3.43.04-.27.07-.53.11-.8.09-.67.18-1.37.31-2.06,1.3-7.09,4.53-13.5,9.6-19.05,4.57-4.99,10.34-8.57,17.16-10.62,3.32-1,6.89-1.55,10.63-1.63,1.39-.03,2.7-.33,3.9-.9,4.33-2.05,6.63-5.5,6.82-10.24.07-1.86-.4-3.72-1.39-5.53-.12-.21-.2-.27-.4-.29-.62-.06-1.23-.13-1.85-.2-.5-.06-.99-.11-1.48-.17-.47-.04-.94-.07-1.42-.09-.05,0-.09,0-.13,0,2.44,1.86,3.51,4.28,3.16,7.2-.39,3.11-2.12,5.29-5.17,6.47-1.04.39-2.11.43-3.06.46-2.81.11-5.68.5-8.54,1.18-5.15,1.24-9.83,3.34-13.92,6.25-5.74,4.09-10.26,9.32-13.44,15.54Z" fill="#a17d23"/>
    <path d="M221.25,85.51c-.1-.06-.19-.06-.29-.06-.19,0-.44.06-.67.45-.03.07-.06.13-.09.19-.1.12-.16.25-.22.38-.58.83-1.34,1.05-2.24.7-.45-.19-.9-.45-1.44-.86-.67-.51-1.31-1.18-2.01-2.08-.7-.86-1.56-1.4-2.52-1.56-.61-.1-1.12-.13-1.62-.1-.83.03-1.67.1-2.5.16-.76.06-1.54.13-2.29.16-.77.06-1.69.09-2.59.06-.8-.03-1.47-.42-1.92-1.02-.48-.67-.64-1.57-.41-2.34.35-1.19,1.44-1.98,2.65-1.98.63,0,1.25.22,1.73.61.25.22.35.41.35.64,0,.29-.26.64-.58.83-.1-.51-.42-.83-.92-.89-.58-.1-1.03.25-1.16.8-.12.32-.06.67.13.99.38.61,1.08.89,1.82.73,1.02-.19,1.95-1.12,2.14-2.11.16-.89-.29-1.79-1.28-2.39-.96-.61-2.01-.77-3.13-.54l-.13.03h-.03c0-.06,0-.09.03-.16.09-.92-.09-1.79-.58-2.62-.48-.83-1.18-1.28-2.01-1.28-.57,0-1.15.26-1.66.71-.22.15-.38.38-.51.57-.29.41-.42.86-.39,1.34.03.61.35,1.06.87,1.31.44.22.92.19,1.31-.13.34-.26.44-.67.32-1.12-.13-.42-.41-.67-.83-.73.03,0,.03-.03.03-.03.67-.64,1.15-.64,1.63.12.42.7.52,1.47.23,2.27-.38,1.15-1.59,1.91-2.81,1.82-1.25-.13-2.24-1.02-2.43-2.17-.04-.45-.04-.93,0-1.44.09-.73.22-1.47.31-2.2.06-.58.16-1.18.23-1.76.03-.22.06-.48.09-.73.13-.83.26-1.7.26-2.53.03-2.08-1.28-3.67-3.45-4.12-.86-.16-1.69-.42-2.46-.7-.54-.19-1.09-.51-1.57-.86-.89-.64-1.02-1.47-.48-2.46.07-.1.13-.19.19-.26.07-.09.13-.16.16-.25.19-.29.19-.61-.03-.83-.13-.13-.32-.26-.55-.26h-.06c-.25.03-.47.19-.57.35-.7.83-1.03,1.82-.9,2.71.1.83.58,1.6,1.41,2.17.38.32.83.54,1.28.77.2.1.38.19.58.29-.06.03-.09.06-.16.13-1.79,1.31-2.24,3.77-1.02,5.59.38.6.86.96,1.44,1.08.76.19,1.69-.13,2.33-.8.48-.51.73-1.09.73-1.66-.04-.67-.48-1.31-1.09-1.5-.48-.13-.96,0-1.25.35-.22.25-.29.54-.22.86.09.51.38.73.83.83-.09.13-.19.22-.26.28-.54.39-.89.32-1.28-.25-.48-.67-.61-1.37-.38-2.14.32-1.21,1.5-2.11,2.78-2.01,1.15.06,2.4.86,2.52,2.27.03.32.07.7,0,1.05-.16,1.21-.32,2.43-.47,3.64l-.23,1.47c-.13.87-.25,1.76-.2,2.65.07,1.28.61,2.3,1.6,3,.29.19.39.38.43.7.16,1.54,1.05,2.59,2.45,2.91.29.07.61.1.93.1h.22c.16,0,.26.03.38.19.61.79,1.4,1.31,2.33,1.44.64.13,1.24.16,1.82.13.77-.03,1.5-.09,2.27-.13.47-.03.95-.1,1.44-.1l.73-.07c.7-.06,1.44-.09,2.14-.12h.19c.74,0,1.28.12,1.73.41.57.38.99,1.02,1.15,1.73.13.76-.03,1.53-.48,2.11-.51.7-1.34,1.12-2.24,1.12-.61,0-1.18-.19-1.66-.57-.38-.29-.47-.51-.38-.8.09-.32.29-.55.54-.73.1.54.42.89.96.92.57.06.99-.22,1.15-.8.1-.32.03-.64-.13-.95-.38-.61-1.05-.9-1.82-.77-.99.19-1.95,1.08-2.14,2.08-.19.96.25,1.82,1.24,2.43.68.45,1.44.67,2.24.67,2.11,0,3.9-1.57,4.19-3.64v-.06c.1.06.16.13.22.19.54.44,1.18.89,1.98,1.21,1.89.67,3.61-.16,4.38-2.04.16-.41.03-.83-.35-.99ZM198.94,81.2s-.08,0-.12,0c-.41,0-.81-.18-1.11-.48-.25-.25-.41-.57-.44-.91l1.67-.09v1.48Z" fill="#a17d23"/>
    <path d="M237.09-10.74l-.23-.22-.19.25c-.76,1.21-1.65,1.89-2.84,2.01.26-1.18,1.02-2.01,2.3-2.65l.32-.13-.22-.25c-.8-.83-2.05-1.31-3.42-1.31-1.22,0-2.3.38-2.91.99l-.22.23.26.16c1.34.96,2.08,2.01,2.02,2.84-1.18-.26-2.02-.99-2.65-2.3l-.16-.32-.26.25c-1.6,1.57-1.72,4.73-.29,6.26l.22.25.16-.29c.74-1.21,1.67-1.85,2.85-2.01-.26,1.15-.99,2.01-2.34,2.65l-.32.13.26.25c.83.83,2.07,1.31,3.45,1.31,1.15,0,2.24-.38,2.91-.99l.22-.19-.25-.19c-1.41-1.02-1.99-1.82-2.04-2.84,1.15.22,2.01.96,2.68,2.3l.16.29.23-.22c.83-.8,1.28-1.98,1.31-3.32,0-1.21-.35-2.3-.99-2.94Z" fill="#a17d23"/>
    <path d="M288.21,36.95l-.22-.22-.19.26c-.77,1.21-1.66,1.88-2.84,2.01.25-1.18,1.02-2.01,2.29-2.65l.32-.12-.22-.26c-.8-.83-2.04-1.31-3.41-1.31-1.21,0-2.3.38-2.91.99l-.23.23.25.16c1.34.96,2.08,2.01,2.02,2.85-1.19-.26-2.02-.99-2.65-2.3l-.16-.32-.25.26c-1.6,1.56-1.72,4.73-.29,6.26l.22.25.16-.29c.74-1.21,1.67-1.85,2.85-2.01-.26,1.15-.99,2.01-2.33,2.65l-.32.12.25.26c.83.83,2.07,1.31,3.45,1.31,1.15,0,2.24-.38,2.91-.99l.22-.19-.25-.19c-1.4-1.02-1.98-1.82-2.05-2.84,1.15.22,2.02.96,2.68,2.3l.16.29.22-.23c.83-.8,1.27-1.98,1.31-3.32,0-1.21-.35-2.3-1-2.94Z" fill="#a17d23"/>
    <path d="M239.76,88.25l-.23-.22-.19.26c-.77,1.21-1.66,1.89-2.85,2.01.26-1.18,1.02-2.01,2.3-2.65l.32-.13-.22-.25c-.8-.83-2.05-1.31-3.42-1.31-1.22,0-2.3.39-2.91.99l-.22.22.26.16c1.34.96,2.07,2.01,2.01,2.85-1.18-.26-2.01-.99-2.65-2.3l-.16-.32-.25.26c-1.6,1.57-1.73,4.72-.29,6.26l.23.26.16-.29c.73-1.21,1.66-1.86,2.85-2.01-.26,1.15-.99,2.01-2.34,2.65l-.32.13.25.25c.83.83,2.08,1.31,3.45,1.31,1.15,0,2.24-.38,2.91-.99l.23-.19-.25-.19c-1.41-1.03-1.99-1.83-2.05-2.85,1.15.22,2.01.96,2.68,2.3l.16.29.22-.22c.83-.8,1.27-1.99,1.31-3.33,0-1.21-.35-2.3-.99-2.94Z" fill="#a17d23"/>
    <path d="M188.27,39.99l-.22-.22-.19.25c-.77,1.21-1.66,1.88-2.84,2.01.25-1.18,1.02-2.01,2.3-2.65l.32-.13-.22-.26c-.8-.83-2.05-1.31-3.42-1.31-1.21,0-2.3.38-2.91.99l-.23.23.26.16c1.34.96,2.08,2.01,2.02,2.85-1.18-.26-2.02-.99-2.66-2.3l-.16-.32-.26.26c-1.59,1.57-1.72,4.73-.28,6.26l.22.25.16-.29c.73-1.21,1.66-1.85,2.84-2.01-.26,1.15-.99,2.01-2.34,2.65l-.32.12.26.25c.83.83,2.07,1.31,3.45,1.31,1.15,0,2.24-.38,2.91-.99l.22-.19-.25-.19c-1.4-1.02-1.98-1.82-2.04-2.85,1.15.22,2.01.96,2.68,2.3l.16.29.23-.23c.83-.8,1.27-1.98,1.31-3.32,0-1.21-.35-2.3-.99-2.94Z" fill="#a17d23"/>
    <path d="M243.94,83.81c-.19-.23-.28-.21-.47-.17-.47.12-1,.22-1.66.33-.56.09-1.12.17-1.69.26l-.52.08c2.54,1.61,3.81,3.89,3.79,6.77-.02,2.91-1.36,5.18-3.99,6.73-1.01.59-2.03.92-3.02.96-2.61.13-5.3.08-8.04-.17-3.02-.27-5.99-.78-8.84-1.5-9.3-2.35-17.6-6.8-24.66-13.2-3.8-3.47-7.12-7.4-9.85-11.67-3.53-5.56-6.07-11.69-7.53-18.19-.06-.25-.16-.38-.37-.52-1.79-1.12-3.23-2.6-4.27-4.43.08.61.16,1.22.25,1.83.72,4.77,2.05,9.47,3.93,13.96,3.62,8.59,9.02,16.08,16.05,22.26,5.54,4.86,11.83,8.67,18.71,11.32,4.24,1.64,8.58,2.78,12.91,3.41,1.7.24,3.54.44,5.76.6,1.17.08,2.11.12,2.98.12,1.12,0,2.13-.07,3.07-.21,2.81-.39,5.18-1.55,7.04-3.45,2.41-2.48,3.47-5.48,3.15-8.92-.22-2.29-1.14-4.38-2.72-6.22Z" fill="#a17d23"/>
    <path d="M294.84,36.45c-1.7-4.66-5.92-7.67-10.75-7.67-.66,0-1.32.06-1.97.17-2.07.36-3.96,1.26-5.59,2.69-.12.11-.16.18-.11.38.22,1.06.41,2.13.6,3.16l.05.25c.03.14.05.29.06.43,1.47-2.4,3.98-3.82,6.77-3.82.33,0,.67.02,1,.06,3.86.46,6.85,3.74,6.94,7.62.06,2.94-.03,5.52-.26,7.89-.3,2.94-.77,5.6-1.44,8.13-2.95,11.25-8.77,20.82-17.32,28.44-7.43,6.64-16.21,11.12-26.09,13.32-.26.05-.39.15-.53.37-1.13,1.77-2.64,3.19-4.49,4.23,2.4-.3,4.77-.73,7.07-1.28,5.96-1.46,11.64-3.75,16.85-6.84,5.78-3.41,10.92-7.7,15.29-12.74,1.95-2.26,3.78-4.75,5.44-7.42,3.87-6.21,6.57-12.96,8.03-20.07.55-2.67.9-5.17,1.06-7.65l.02-.28c.13-2.18.29-4.44,0-6.64-.15-1.06-.35-1.94-.64-2.76Z" fill="#a17d23"/>
    <path d="M279.88,22.2c-.64-.67-1.44-1.09-2.11-1.4.03-.04.06-.04.13-.06,1.94-1.28,2.49-3.77,1.24-5.69-.51-.8-1.21-1.18-2.04-1.12-.99.06-2.04.86-2.33,1.82-.26.77,0,1.57.63,1.98.45.29,1.16.22,1.53-.16.32-.32.42-.99,0-1.37-.16-.16-.35-.26-.54-.35.04-.06.1-.13.19-.19.57-.45,1.02-.38,1.37.25.35.61.45,1.21.32,1.88-.25,1.25-1.41,2.17-2.68,2.17h-.22c-1.44-.12-2.46-1.21-2.46-2.62,0-.35.03-.61.06-.86.13-.7.26-1.41.39-2.11l.38-2.2c.16-.9.32-1.82.45-2.75.22-1.66-.35-2.97-1.66-3.9-.1-.1-.12-.16-.12-.29v-.32l-.04-.06c-.16-1.66-1.12-2.68-2.78-2.97-.16-.03-.35-.06-.51-.06h-.16c-.16,0-.26-.03-.38-.22-.7-.99-1.66-1.57-2.78-1.63-.86-.06-1.72-.06-2.42-.06h-1.06c-.64,0-1.32,0-1.95.03-.8,0-1.59.03-2.4.03h-.26c-.86-.03-1.5-.25-2.01-.77-.64-.64-.9-1.57-.71-2.46.2-.87.8-1.6,1.63-1.95.99-.41,2.17-.19,2.87.51.32.29.38.51.29.77-.13.32-.32.55-.57.67-.06-.51-.39-.87-.93-.96h-.19c-.32,0-.74.13-.96.74-.13.32-.1.67.07.99.35.64,1.11.99,1.88.83,1.05-.19,1.98-1.08,2.14-2.08.19-.96-.23-1.75-1.21-2.43-.7-.44-1.5-.7-2.33-.7-1.95,0-3.64,1.31-4.09,3.19-.03.1-.03.19-.07.32-.12-.1-.25-.22-.35-.32-.77-.67-1.47-1.12-2.24-1.34-.28-.06-.61-.12-.93-.12-1.4,0-2.68.92-3.13,2.23-.13.38,0,.74.35.93.32.13.7.03.93-.29.06-.1.13-.19.19-.32.06-.1.1-.19.16-.29.6-.83,1.4-1.06,2.33-.6.38.16.77.41,1.25.8.73.58,1.37,1.31,2.02,2.2.83,1.22,2.01,1.85,3.48,1.88,1.31,0,2.66-.03,3.97-.03l.7-.03c.26,0,.55,0,.83-.03.39,0,.77-.03,1.15-.03.54,0,.99.03,1.4.1.64.09,1.12.35,1.5.77.51.54.8,1.28.73,2.01-.03.76-.42,1.47-.98,1.94-1.03.8-2.69.74-3.58-.12-.29-.29-.35-.48-.29-.67.09-.35.29-.61.6-.77.03.48.36.83.87.96.47.1.89-.1,1.11-.58.23-.38.23-.76,0-1.12-.25-.51-.67-.8-1.18-.86-1.09-.13-2.21.54-2.72,1.63-.38.93-.09,1.95.77,2.65.99.76,2.2,1.05,3.45.86l.09-.03-.03.07c-.16,1.08,0,2.07.55,2.93.48.77,1.15,1.16,1.92,1.18,1.15,0,2.33-.96,2.59-2.05.16-.73-.16-1.5-.8-1.85-.42-.19-1.06-.13-1.38.16-.45.38-.32.92-.29,1.12.12.38.38.64.77.7-.58.64-1.21.57-1.63-.22-.35-.64-.42-1.34-.19-2.01.22-.7.7-1.25,1.34-1.6.38-.19.83-.32,1.28-.32,1.41,0,2.65,1.12,2.65,2.46.03.8-.13,1.6-.26,2.39l-.03.1c-.1.61-.22,1.25-.32,1.86-.22,1.08-.44,2.23-.6,3.35-.1.6-.1,1.21,0,1.79.29,1.6,1.34,2.72,3.03,3.16,1.18.32,2.4.64,3.45,1.31.28.19.57.42.8.64.67.6.77,1.34.31,2.14-.06.13-.16.26-.29.42-.07.06-.13.16-.16.22-.29.39-.26.77.09,1.06.13.1.29.13.45.13.19,0,.38-.06.54-.26.63-.67,1.02-1.47,1.08-2.3.06-.9-.26-1.69-.99-2.43ZM270.87,4.78h-1.62v-1.47c.83-.07,1.51.58,1.62,1.47Z" fill="#a17d23"/>
    <path d="M221.72-5.86c.34,1.92,1.22,3.69,2.59,5.26.14.16.2.14.3.13,1.31-.24,2.61-.46,3.96-.69h0c-2.21-1.38-3.57-3.6-3.74-6.15-.17-2.56.91-4.97,2.95-6.61,1.33-1.07,2.8-1.64,4.36-1.69.74-.03,1.47-.04,2.21-.04,2.12,0,4.25.11,6.34.34,3.04.33,6,.89,8.83,1.65,8.99,2.44,17.05,6.89,23.95,13.21,5.35,4.89,9.68,10.76,12.87,17.45,1.77,3.74,3.14,7.67,4.06,11.67.06.27.17.43.39.56,1.78,1.08,3.21,2.54,4.29,4.35-.06-.36-.11-.71-.17-1.07-.19-1.23-.39-2.5-.66-3.73-1.69-7.8-4.85-15.08-9.42-21.64-4.68-6.74-10.57-12.4-17.49-16.82-7.94-5.06-16.66-8.18-25.93-9.27-2.01-.24-4.14-.47-6.27-.47-.99,0-1.9.05-2.78.15-.14.01-.28.02-.42.03-.26.02-.51.04-.75.09-3.17.64-5.58,2.07-7.35,4.37-2,2.62-2.72,5.61-2.12,8.89Z" fill="#a17d23"/>
    <path d="M218.15-2.5c-.99-1.79-2.72-2.46-4.48-1.66-.7.35-1.34.83-2.01,1.53-.06.03-.1.06-.13.13v-.09c-.42-1.57-1.38-2.59-2.87-3.03-1.47-.48-2.88-.16-4.09.9-.57.51-.86,1.15-.83,1.85.1,1.31,1.6,2.56,2.97,2.3.68-.13,1.21-.67,1.31-1.28.04-.32-.06-.67-.25-.92-.2-.22-.45-.39-.74-.39-.32-.03-.64.06-.83.29-.19.19-.32.45-.32.73-.41-.22-.64-.48-.64-.77-.03-.29.13-.57.48-.86.86-.7,2.08-.8,3.07-.25.96.54,1.54,1.66,1.37,2.72-.22,1.21-.95,2.01-2.1,2.2-.81.13-1.6.16-2.21.19-1.05.03-2.08.07-3.13.07-.64.03-1.31.03-1.95.06-.41,0-.83.03-1.24.13-1.21.19-2.14.77-2.72,1.72-.16.22-.32.32-.61.32-1.6.1-2.68.99-3.03,2.43-.1.35-.13.7-.13,1.02,0,.22-.06.35-.26.51-.96.83-1.44,1.88-1.38,3.13.03.57.1,1.15.23,1.66.22,1.02.44,2.05.7,3.07.23.89.42,1.79.64,2.68.09.54.22,1.15.13,1.76-.19,1.12-1.12,1.95-2.33,2.14-1.12.16-2.33-.51-2.81-1.5-.41-.86-.35-1.73.13-2.55.19-.32.35-.48.64-.45.38.06.64.19.86.45-.48.13-.77.48-.77,1.02s.35.96.96,1.02c.38.07.71-.03.99-.32.61-.54.74-1.31.35-2.04-.35-.77-.99-1.28-1.91-1.5-.64-.19-1.28-.03-1.79.42-.32.29-.57.6-.73.89-1.02,1.98-.25,4.41,1.69,5.5l.06.03-.12.06c-.73.42-1.54.9-2.14,1.66-1.29,1.69-.54,3.42.54,4.5.15.13.32.22.54.22.19,0,.39-.09.51-.22.13-.13.38-.51,0-.99-.06-.07-.12-.13-.16-.19-.13-.16-.26-.29-.35-.45-.45-.77-.41-1.47.19-2.11.26-.29.61-.58.99-.83.93-.57,1.95-.92,3-1.28.39-.13.89-.29,1.31-.57,1.47-.99,2.08-2.46,1.76-4.28-.19-1.02-.44-2.04-.7-3.07-.16-.67-.32-1.34-.45-2.05-.22-.92-.38-1.81-.48-2.65-.1-.64.1-1.21.51-1.72.67-.77,1.5-1.09,2.56-.96.89.1,1.69.67,2.07,1.56.39.86.32,1.79-.19,2.53-.22.32-.41.42-.7.35-.29-.03-.57-.19-.73-.42.22-.06.45-.19.61-.45.23-.42.19-.93-.1-1.25-.31-.35-.99-.48-1.43-.25-.55.32-.84.83-.84,1.47,0,.45.16.9.48,1.28.7.8,1.5,1.19,2.4,1.06.86-.1,1.47-.61,1.88-1.57.35-.8.42-1.7.22-2.59v-.1c.07.03.16.03.26.03,1.24.09,2.36-.26,3.29-1.09.73-.71.99-1.66.63-2.46-.44-.99-1.21-1.57-2.27-1.69-.7-.1-1.31.19-1.65.8-.3.45-.26.96.03,1.41.29.35.64.48,1.05.38.45-.09.8-.42.86-.86v-.13c.09.03.16.06.19.13.32.22.47.48.47.7s-.12.45-.44.74c-.54.48-1.22.7-2.02.64-1.31-.09-2.39-1.15-2.49-2.52-.09-1.09.55-2.39,1.95-2.68.44-.09.93-.16,1.5-.19.54-.03,1.11-.06,1.66-.06.38,0,.74,0,1.12-.03l.9-.03c.99,0,2.01-.03,3.03-.1,1.47-.1,2.63-.77,3.39-2.01.57-.9,1.21-1.72,1.98-2.4.39-.35.84-.7,1.44-.93.67-.25,1.28-.12,1.79.38.19.16.35.42.52.64l.06.1c.29.38.71.51,1.02.32.36-.22.45-.64.26-1.02ZM195.37,6.34c-.25.01-.5.05-.75.08h-.06c.11-.73.48-1.48,1.52-1.55,0,.03,0,.05,0,.08,0,.23,0,.47,0,.7.03.23.07.46.11.68h-.4c-.14,0-.28,0-.42,0Z" fill="#a17d23"/>
    <path d="M279.81,60.18l-.1-.03c.1-.06.19-.13.29-.16.77-.42,1.31-.83,1.76-1.34,1.53-1.69.86-3.55-.29-4.7-.04-.06-.13-.16-.23-.19-.35-.13-.67-.07-.86.16-.26.28-.26.61-.06.89.06.09.13.16.19.22.07.06.1.13.16.19.8.99.7,1.85-.2,2.65-.44.38-.95.73-1.53.99-.67.32-1.47.64-2.3.9-1.76.51-2.87,1.85-3.03,3.55-.06.48-.03,1.05.13,1.69.16.86.35,1.72.57,2.55.1.51.22,1.02.35,1.53l.13.58c.16.77.35,1.6.48,2.43.16.93-.13,1.73-.86,2.36-.57.48-1.25.67-2.04.64-.93-.06-1.76-.64-2.2-1.5-.42-.83-.38-1.79.09-2.55.23-.32.42-.45.67-.45h.07c.28.03.57.19.76.41-.42.13-.61.39-.67.64-.16.42-.06.93.25,1.18.36.28.99.35,1.38.13.6-.36.92-1.09.76-1.76-.23-.93-.83-1.56-1.85-1.92-.83-.28-1.6-.12-2.21.48-.61.64-.96,1.44-.99,2.43,0,.35.02.7.06,1.09.03.03.03.1.03.13h-.22c-1.31-.13-2.43.25-3.33,1.12-.67.64-.93,1.41-.7,2.2.29.99,1.34,1.85,2.36,1.92.83.07,1.6-.41,1.82-1.18.07-.29.07-.74-.38-1.18-.29-.29-.7-.35-1.12-.16-.51.25-.64.64-.64.92-.32-.16-.54-.38-.64-.7-.09-.29.03-.51.39-.83.77-.67,1.66-.86,2.68-.57,1.15.38,1.91,1.47,1.85,2.68-.03,1.05-.67,2.21-2.04,2.46-.51.1-1.06.16-1.66.16-.93.03-1.83.06-2.71.09-1.19.03-2.4.06-3.58.13-1.57.06-2.78.76-3.62,2.11-.64,1.03-1.34,1.85-2.14,2.5-.39.28-.8.54-1.22.73-.64.25-1.25.16-1.76-.35-.17-.19-.32-.38-.48-.61l-.16-.22c-.25-.35-.7-.45-1.02-.25-.29.19-.48.58-.16,1.09,1.02,1.83,2.9,2.43,4.7,1.44.8-.44,1.4-1.02,1.85-1.44.45,1.88,2.14,3.26,4.15,3.26.99,0,1.95-.35,2.72-.99.61-.54.92-1.18.92-1.85s-.35-1.28-.96-1.79c-.29-.26-.67-.45-.99-.54-.35-.1-.73-.1-1.08-.03-.76.12-1.35.86-1.22,1.6.07.51.46.93.93.96.54.04,1.03-.25,1.15-.73.03-.09.03-.19.03-.32.07.03.09.07.12.07.35.28.54.57.54.83,0,.22-.16.48-.48.73-.67.57-1.44.77-2.33.57-1.25-.29-2.14-1.38-2.14-2.68.03-1.31.86-2.3,2.14-2.52.7-.13,1.44-.16,2.07-.19,1.06-.04,2.11-.07,3.17-.07.64-.03,1.31-.03,1.98-.06.35,0,.77-.03,1.22-.13,1.25-.19,2.17-.77,2.78-1.66.16-.29.32-.38.67-.42,1.47-.09,2.59-.96,2.94-2.27.09-.38.16-.7.13-.99,0-.35.1-.55.35-.73.7-.58,1.15-1.38,1.31-2.33.09-.77,0-1.47-.13-2.04-.19-.8-.35-1.6-.54-2.37-.13-.57-.25-1.12-.38-1.66l-.07-.35c-.22-.86-.42-1.76-.57-2.65-.09-.61.03-1.22.35-1.75.51-.77,1.38-1.25,2.33-1.25s1.79.48,2.27,1.21c.61.96.64,1.92.07,2.88-.16.29-.36.45-.62.45h-.03c-.35-.06-.64-.19-.83-.41.42-.13.67-.45.7-.87.03-.16.13-.67-.35-1.02-.42-.29-.96-.29-1.38-.04-.54.32-.83,1.03-.74,1.66.23.99,1.06,1.82,2.18,2.04.64.16,1.18.03,1.63-.35.38-.29.64-.61.8-.92,1.06-2.01.35-4.38-1.63-5.53ZM273.62,76.48c.02.31-.09.61-.29.87-.28.36-.73.59-1.24.65-.04-.51-.08-1.01-.12-1.52h1.65Z" fill="#a17d23"/>
  </g>
</svg>