<?xml version="1.0" encoding="UTF-8"?>
<svg id="Layer_1" xmlns="http://www.w3.org/2000/svg" version="1.1" viewBox="0 0 123.29 122.01">
  <!-- Generator: Adobe Illustrator 30.2.1, SVG Export Plug-In . SVG Version: 2.1.1 Build 1)  -->
  <polygon points="11.71 68.99 11.71 68.99 11.71 68.99 11.71 68.99" fill="#a17d23"/>
  <path d="M60.84,12.25v-.28s.29.03.29.03c1.36.18,2.4.94,3.17,2.3.57-.68.9-1.65.91-2.7,0-.93-.22-1.78-.64-2.34-.89,1.28-2.01,1.93-3.41,1.98h-.3s.05-.29.05-.29c.21-1.39.97-2.43,2.33-3.16-.71-.57-1.7-.9-2.79-.9-.92,0-1.77.24-2.32.63,1.49,1.13,2.2,2.4,1.91,3.44l-.06.22-.22-.03c-1.36-.21-2.38-.97-3.12-2.31-1.19,1.47-1.15,3.8-.26,5.05.87-1.26,1.97-1.91,3.4-1.98h.3s-.04.29-.04.29c-.19,1.39-.96,2.43-2.34,3.17.73.58,1.73.9,2.8.9.9,0,1.74-.23,2.31-.63-1.45-1.12-2.01-2.08-1.98-3.37Z" fill="#a17d23"/>
  <path d="M110.89,59.64h.3s-.04.29-.04.29c-.19,1.38-.93,2.39-2.32,3.17.76.57,1.76.9,2.82.9.88,0,1.7-.23,2.28-.64-1.28-.86-1.94-1.97-1.99-3.35l-.02-.3.3.04c1.41.18,2.45.92,3.22,2.31,1.2-1.52,1.14-3.82.26-5.06-.88,1.27-1.99,1.92-3.39,1.98l-.3.02.04-.3c.18-1.39.93-2.41,2.32-3.18-.7-.57-1.71-.89-2.77-.89-.87,0-1.68.22-2.33.63,1.31.88,1.95,1.97,1.99,3.37v.31s-.29-.05-.29-.05c-.82-.13-1.5-.42-2.07-.89-.47-.39-.8-.86-1.13-1.44-1.18,1.53-1.12,3.83-.26,5.06.88-1.28,1.99-1.92,3.39-1.97Z" fill="#a17d23"/>
  <polygon points="60.34 18.22 60.34 18.21 60.34 18.21 60.34 18.22" fill="#a17d23"/>
  <path d="M19.59,62.56v.28c.15,2.84.56,5.66,1.25,8.39.81,3.3,2.04,6.47,3.64,9.44,2.3,4.23,5.47,8.11,9.44,11.54,5.64,4.88,12.23,8.11,19.58,9.59.21.04.31.05.51-.14,1-1.05,2.21-1.93,3.58-2.6-.32-.04-.62-.08-.94-.13-.91-.12-1.86-.25-2.78-.43-6.79-1.34-13.05-4.52-18.61-9.44-1.38-1.22-2.69-2.62-4-4.29-5.27-6.67-8.07-14.33-8.32-22.77-.07-2.33-.8-4.44-2.18-6.26-1.97-2.58-4.61-4.1-7.84-4.51-2.37-.3-4.68.14-6.87,1.31-.22.12-.29.18-.3.33-.09.97-.17,1.94-.26,2.92-.05.65-.12,1.3-.18,1.95,1.49-1.94,3.45-3.01,5.85-3.17.19-.01.38-.02.58-.02,3.53,0,6.64,2.36,7.57,5.73.22.76.25,1.53.28,2.28Z" fill="#a17d23"/>
  <path d="M93.54,88.13c.71-.81,1.42-1.71,2.25-2.83,3.56-4.91,5.96-10.43,7.13-16.41.05-.25.02-.36-.17-.53-1.06-.99-1.94-2.16-2.61-3.49-.13,1.5-.38,3.02-.75,4.64-1.53,6.69-4.7,12.64-9.42,17.67-4.25,4.55-9.5,7.92-15.59,10.01-3.42,1.17-6.98,1.86-10.6,2.04l-.54.03c-.76.03-1.55.07-2.29.21-3.56.68-6.51,2.98-8.07,6.32-1.56,3.32-1.45,7.01.29,10.15.13.25.29.35.57.38.48.04.96.1,1.44.15.55.06,1.08.12,1.62.16.48.04.95.07,1.43.09.09,0,.18,0,.27.01-1.9-1.39-2.99-3.27-3.22-5.57-.38-3.58,1.86-7.02,5.33-8.17.99-.33,1.99-.39,3.01-.42,2.69-.12,5.51-.52,8.36-1.2,3.41-.82,6.74-2.09,9.92-3.79,4.16-2.24,7.97-5.33,11.64-9.45Z" fill="#a17d23"/>
  <path d="M33.64,36.68c-6.68,7.72-9.76,16.75-9.16,26.86.18,2.95.74,5.86,1.66,8.66,2.17,6.58,5.82,12.09,10.85,16.39,7.18,6.13,15.52,9.24,24.77,9.24h0c.33,0,.66,0,.98-.01,2.32-.05,4.46-.3,6.54-.74,8.19-1.73,15.05-5.68,20.37-11.75,6-6.81,9.09-14.95,9.22-24.2,0-2.4-.29-5.26-.76-7.45-1.69-7.89-5.59-14.62-11.58-20-3.34-3-7.17-5.35-11.38-6.98-4.34-1.68-8.87-2.53-13.48-2.53-.35,0-.7,0-1.06.02-3.28.09-6.27.52-9.13,1.33-7.23,2.06-13.25,5.82-17.87,11.17ZM46.81,53.19c2.99,1.5,6.94,2.31,9.14,2.31h0c-.26-4.73-1.64-8.77-4.21-12.32-2.69-3.74-6.26-6.49-10.6-8.19l-.34-.13.24-.28c.45-.52.97-.98,1.6-1.43,1.26-.89,2.69-1.38,4.26-1.49,2.08-.13,4.11.31,6.36,1.34.6.28,1.19.6,1.76.92.25.14.5.27.75.4.07.04.13.07.2.11.04-.09.07-.18.1-.27.78-2.14,1.91-3.75,3.49-4.92.29-.22.6-.42.9-.61.14-.09.28-.17.41-.27.48-.29.95-.29,1.46,0,2.1,1.16,3.65,2.9,4.57,5.17.07.16.13.33.2.49.05.13.1.27.16.41.04-.02.07-.04.1-.06l.2-.12c2.08-1.25,4.03-2.04,5.96-2.4,2.51-.46,4.59-.16,6.47.92.78.45,1.61,1.15,2.18,1.82l.23.27-.33.13c-4.29,1.67-7.82,4.39-10.52,8.07-2.55,3.47-3.94,7.44-4.26,12.14,7.42-.19,16.56-4.74,20.49-14.57l.12-.3.34.25c.08.06.15.11.22.17,1.49,1.42,2.37,3.09,2.62,4.97.19,1.48.04,3.05-.45,4.66-.46,1.56-1.16,3.08-2.15,4.67-.05.07-.09.15-.15.23l.12.04c.3.11.58.22.87.34,2.28.93,4.02,2.45,5.16,4.51.26.46.25.92,0,1.39-1.16,2.11-2.97,3.65-5.36,4.59-.25.1-.5.19-.78.29l.15.26c1.32,2.14,2.11,4.04,2.47,5.99.43,2.32.18,4.3-.77,6.06-.42.79-1.01,1.53-1.85,2.34-.07.06-.15.09-.2.11l-.23.09-.1-.22c-2.24-5.4-5.93-9.47-10.98-12.08-2.83-1.47-6-2.31-9.46-2.52.12,7.45,4.69,16.6,14.74,20.51l.29.11-.16.26s-.03.05-.04.07c-.03.05-.05.11-.1.16-1.48,1.54-3.2,2.43-5.11,2.68-1.49.2-3.04.06-4.7-.43-1.57-.45-3.11-1.15-4.71-2.13l-.26-.15c-.04.08-.07.17-.1.25-.63,1.73-1.49,3.11-2.61,4.2-.64.63-1.39,1.17-2.28,1.66-.22.11-.44.17-.65.17-.22,0-.45-.06-.66-.18-2.12-1.15-3.68-2.89-4.63-5.19-.08-.2-.16-.4-.24-.6-.04-.11-.08-.21-.12-.32-.08.05-.16.1-.25.15-2.14,1.31-4.08,2.08-6.06,2.45-2.46.44-4.54.15-6.4-.92-.68-.39-1.35-.92-2.08-1.67-.05-.07-.07-.12-.1-.16l-.13-.25.24-.14c5.44-2.21,9.54-5.85,12.18-10.81,1.51-2.84,2.36-5.93,2.58-9.44-4.75.3-8.78,1.68-12.31,4.2-3.72,2.65-6.47,6.15-8.18,10.4l-.11.26-.25-.14c-.11-.05-.18-.08-.25-.15-2.04-1.93-2.96-4.3-2.75-7.06.17-2.07.84-4.09,2.12-6.39.19-.36.4-.71.61-1.07l.05-.09-.17-.07c-.29-.11-.57-.22-.85-.33-2.23-.92-3.94-2.41-5.09-4.45-.29-.51-.29-.98,0-1.48,1.14-2.03,2.86-3.52,5.09-4.44.33-.14.67-.27,1.04-.41,0,0-.01-.03-.02-.04l-.12-.2c-1.26-2.03-2.06-3.94-2.45-5.84-.26-1.27-.3-2.42-.14-3.54.27-1.91,1.2-3.62,2.76-5.06.04-.05.12-.08.17-.09l.21-.06.13.2c2.29,5.52,6.1,9.65,11.33,12.26Z" fill="#a17d23"/>
  <path d="M103.51,57.3c-.17-2.13-.56-4.38-1.2-6.87-2.09-8.17-6.5-15.07-13.5-21.08-.5-.43-1.05-.87-1.74-1.39-5.13-3.85-10.9-6.45-17.13-7.71-.22-.05-.31-.06-.5.14-.99,1.03-2.18,1.88-3.55,2.55.6.08,1.18.16,1.76.25l.28.05c.72.12,1.47.24,2.2.41,8.66,2.01,15.88,6.44,21.44,13.16,5.43,6.56,8.37,14.28,8.73,22.94.1,2.36.86,4.47,2.28,6.26,2.14,2.72,4.98,4.22,8.45,4.45,2.15.14,4.21-.32,6.16-1.38.24-.13.35-.23.37-.5.05-.74.13-1.48.21-2.21.05-.46.1-.92.14-1.39.03-.39.05-.78.06-1.18-1.88,2.47-4.39,3.55-7.45,3.2-3.72-.42-6.68-3.56-6.86-7.29-.03-.81-.1-1.61-.16-2.42Z" fill="#a17d23"/>
  <path d="M11.45,73.43h0c.46,0,.95-.03,1.44-.08,2.22-.23,4.26-1.13,6.08-2.67.15-.13.19-.2.15-.42-.2-.98-.36-1.98-.53-2.96l-.07-.41c-.03-.16-.04-.32-.07-.49-1.42,2.33-4.01,3.78-6.76,3.78-.74,0-1.49-.11-2.2-.31-3.79-1.09-5.6-4.43-5.69-7.06-.13-3.92.11-7.72.69-11.3.7-4.31,1.9-8.51,3.56-12.48,2.62-6.31,6.35-12.05,11.07-17.06,4.62-4.92,10.02-8.96,16.05-12.01,4.43-2.24,9.11-3.9,13.91-4.92.29-.06.49-.19.65-.45,1.06-1.65,2.49-3,4.23-4.02.07-.04.14-.08.2-.12-2.11.24-4.25.61-6.53,1.12-6.55,1.5-12.77,4.02-18.47,7.5-5.22,3.18-9.81,6.99-13.65,11.33C7.7,29.23,2.75,39.56.82,51.1c-.73,4.36-.97,7.96-.73,11.32.17,2.48.98,4.67,2.41,6.52,2.31,2.98,5.33,4.49,8.96,4.49Z" fill="#a17d23"/>
  <path d="M24.05,42.37c-1.62,3.17-2.84,6.64-3.62,10.32-.07.33-.01.51.23.75,1,.94,1.84,2.1,2.5,3.43.04-.27.07-.53.11-.8.09-.67.18-1.37.31-2.06,1.3-7.09,4.53-13.5,9.6-19.05,4.57-4.99,10.34-8.57,17.16-10.62,3.32-1,6.89-1.55,10.63-1.63,1.39-.03,2.7-.33,3.9-.9,4.33-2.05,6.63-5.5,6.82-10.24.07-1.86-.4-3.72-1.39-5.53-.12-.21-.2-.27-.4-.29-.62-.06-1.23-.13-1.85-.2-.5-.06-.99-.11-1.48-.17-.47-.04-.94-.07-1.42-.09-.05,0-.09,0-.13,0,2.44,1.86,3.51,4.28,3.16,7.2-.39,3.11-2.12,5.29-5.17,6.47-1.04.39-2.11.43-3.06.46-2.81.11-5.68.5-8.54,1.18-5.15,1.24-9.83,3.34-13.92,6.25-5.74,4.09-10.26,9.32-13.44,15.54Z" fill="#a17d23"/>
  <path d="M48.89,104.92c-.1-.06-.19-.06-.29-.06-.19,0-.44.06-.67.45-.03.07-.06.13-.09.19-.1.12-.16.25-.22.38-.58.83-1.34,1.05-2.24.7-.45-.19-.9-.45-1.44-.86-.67-.51-1.31-1.18-2.01-2.08-.7-.86-1.56-1.4-2.52-1.56-.61-.1-1.12-.13-1.62-.1-.83.03-1.67.1-2.5.16-.76.06-1.54.13-2.29.16-.77.06-1.69.09-2.59.06-.8-.03-1.47-.42-1.92-1.02-.48-.67-.64-1.57-.41-2.33.35-1.19,1.44-1.98,2.65-1.98.63,0,1.25.22,1.73.61.25.22.35.41.35.64,0,.29-.26.64-.58.83-.1-.51-.42-.83-.92-.89-.58-.1-1.03.25-1.16.8-.12.32-.06.67.13.99.38.61,1.08.89,1.82.73,1.02-.19,1.95-1.12,2.14-2.11.16-.89-.29-1.79-1.28-2.39-.96-.61-2.01-.77-3.13-.54l-.13.03h-.03c0-.06,0-.09.03-.16.09-.92-.09-1.79-.58-2.62-.48-.83-1.18-1.28-2.01-1.28-.57,0-1.15.26-1.66.71-.22.15-.38.38-.51.57-.29.41-.42.86-.39,1.34.03.61.35,1.06.87,1.31.44.22.92.19,1.31-.13.34-.26.44-.67.32-1.12-.13-.42-.41-.67-.83-.73.03,0,.03-.03.03-.03.67-.64,1.15-.64,1.63.12.42.7.52,1.47.23,2.27-.38,1.15-1.59,1.92-2.81,1.82-1.25-.13-2.24-1.02-2.43-2.17-.04-.45-.04-.93,0-1.44.09-.73.22-1.47.31-2.2.06-.58.16-1.18.23-1.76.03-.22.06-.48.09-.73.13-.83.26-1.7.26-2.53.03-2.08-1.28-3.67-3.45-4.12-.86-.16-1.69-.42-2.46-.7-.54-.19-1.09-.51-1.57-.86-.89-.64-1.02-1.47-.48-2.46.07-.1.13-.19.19-.26.07-.09.13-.16.16-.25.19-.29.19-.61-.03-.83-.13-.13-.32-.26-.55-.26h-.06c-.25.03-.47.19-.57.35-.7.83-1.03,1.82-.9,2.71.1.83.58,1.6,1.41,2.17.38.32.83.54,1.28.77.2.1.38.19.58.29-.06.03-.09.06-.16.13-1.79,1.31-2.24,3.77-1.02,5.59.38.6.86.96,1.44,1.08.76.19,1.69-.13,2.33-.8.48-.51.73-1.09.73-1.66-.04-.67-.48-1.31-1.09-1.5-.48-.13-.96,0-1.25.35-.22.25-.29.54-.22.86.09.51.38.73.83.83-.09.13-.19.22-.26.28-.54.39-.89.32-1.28-.25-.48-.67-.61-1.37-.38-2.14.32-1.21,1.5-2.11,2.78-2.01,1.15.06,2.4.86,2.52,2.27.03.32.07.7,0,1.05-.16,1.21-.32,2.43-.47,3.64l-.23,1.47c-.13.87-.25,1.76-.2,2.65.07,1.28.61,2.3,1.6,3,.29.19.39.38.43.7.16,1.54,1.05,2.59,2.45,2.91.29.07.61.1.93.1h.22c.16,0,.26.03.38.19.61.79,1.4,1.31,2.33,1.44.64.13,1.24.16,1.82.13.77-.03,1.5-.09,2.27-.13.47-.03.95-.1,1.44-.1l.73-.07c.7-.06,1.44-.09,2.14-.12h.19c.74,0,1.28.12,1.73.41.57.38.99,1.02,1.15,1.73.13.76-.03,1.53-.48,2.11-.51.7-1.34,1.12-2.24,1.12-.61,0-1.18-.19-1.66-.57-.38-.29-.47-.51-.38-.8.09-.32.29-.55.54-.73.1.54.42.89.96.92.57.06.99-.22,1.15-.8.1-.32.03-.64-.13-.95-.38-.61-1.05-.9-1.82-.77-.99.19-1.95,1.08-2.14,2.08-.19.96.25,1.82,1.24,2.43.68.45,1.44.67,2.24.67,2.11,0,3.9-1.57,4.19-3.64v-.06c.1.06.16.13.22.19.54.44,1.18.89,1.98,1.21,1.89.67,3.61-.16,4.38-2.04.16-.41.03-.83-.35-.99ZM26.57,100.6s-.08,0-.12,0c-.41,0-.81-.18-1.11-.48-.25-.25-.41-.57-.44-.91l1.67-.09v1.48Z" fill="#a17d23"/>
  <path d="M64.73,8.66l-.23-.22-.19.25c-.76,1.21-1.65,1.89-2.84,2.01.26-1.18,1.02-2.01,2.3-2.65l.32-.13-.22-.25c-.8-.83-2.05-1.31-3.42-1.31-1.22,0-2.3.38-2.91.99l-.22.23.26.16c1.34.96,2.08,2.01,2.02,2.84-1.18-.26-2.02-.99-2.65-2.3l-.16-.32-.26.25c-1.6,1.57-1.72,4.73-.29,6.26l.22.25.16-.29c.74-1.21,1.67-1.85,2.85-2.01-.26,1.15-.99,2.01-2.34,2.65l-.32.13.26.25c.83.83,2.07,1.31,3.45,1.31,1.15,0,2.24-.38,2.91-.99l.22-.19-.25-.19c-1.41-1.02-1.99-1.82-2.04-2.84,1.15.22,2.01.96,2.68,2.3l.16.29.23-.22c.83-.8,1.28-1.98,1.31-3.32,0-1.21-.35-2.3-.99-2.94Z" fill="#a17d23"/>
  <path d="M115.84,56.35l-.22-.22-.19.26c-.77,1.21-1.66,1.88-2.84,2.01.25-1.18,1.02-2.01,2.29-2.65l.32-.12-.22-.26c-.8-.83-2.04-1.31-3.41-1.31-1.21,0-2.3.38-2.91.99l-.23.23.25.16c1.34.96,2.08,2.01,2.02,2.85-1.19-.26-2.02-.99-2.65-2.3l-.16-.32-.25.26c-1.6,1.56-1.72,4.73-.29,6.26l.22.25.16-.29c.74-1.21,1.67-1.85,2.85-2.01-.26,1.15-.99,2.01-2.33,2.65l-.32.12.25.26c.83.83,2.07,1.31,3.45,1.31,1.15,0,2.24-.38,2.91-.99l.22-.19-.25-.19c-1.4-1.02-1.98-1.82-2.05-2.84,1.15.22,2.02.96,2.68,2.3l.16.29.22-.23c.83-.8,1.27-1.98,1.31-3.32,0-1.21-.35-2.3-1-2.94Z" fill="#a17d23"/>
  <path d="M67.39,107.66l-.23-.22-.19.26c-.77,1.21-1.66,1.89-2.85,2.01.26-1.18,1.02-2.01,2.3-2.65l.32-.13-.22-.25c-.8-.83-2.05-1.31-3.42-1.31-1.22,0-2.3.39-2.91.99l-.22.22.26.16c1.34.96,2.07,2.01,2.01,2.85-1.18-.26-2.01-.99-2.65-2.3l-.16-.32-.25.26c-1.6,1.57-1.73,4.72-.29,6.26l.23.26.16-.29c.73-1.21,1.66-1.86,2.85-2.01-.26,1.15-.99,2.01-2.34,2.65l-.32.13.25.25c.83.83,2.08,1.31,3.45,1.31,1.15,0,2.24-.38,2.91-.99l.23-.19-.25-.19c-1.41-1.03-1.99-1.83-2.05-2.85,1.15.22,2.01.96,2.68,2.3l.16.29.22-.22c.83-.8,1.27-1.99,1.31-3.33,0-1.21-.35-2.3-.99-2.94Z" fill="#a17d23"/>
  <path d="M15.9,59.39l-.22-.22-.19.25c-.77,1.21-1.66,1.88-2.84,2.01.25-1.18,1.02-2.01,2.3-2.65l.32-.13-.22-.26c-.8-.83-2.05-1.31-3.42-1.31-1.21,0-2.3.38-2.91.99l-.23.23.26.16c1.34.96,2.08,2.01,2.02,2.85-1.18-.26-2.02-.99-2.66-2.3l-.16-.32-.26.26c-1.59,1.57-1.72,4.73-.28,6.26l.22.25.16-.29c.73-1.21,1.66-1.85,2.84-2.01-.26,1.15-.99,2.01-2.34,2.65l-.32.12.26.25c.83.83,2.07,1.31,3.45,1.31,1.15,0,2.24-.38,2.91-.99l.22-.19-.25-.19c-1.4-1.02-1.98-1.82-2.04-2.85,1.15.22,2.01.96,2.68,2.3l.16.29.23-.23c.83-.8,1.27-1.98,1.31-3.32,0-1.21-.35-2.3-.99-2.94Z" fill="#a17d23"/>
  <path d="M71.57,103.21c-.19-.23-.28-.21-.47-.17-.47.12-1,.22-1.66.33-.56.09-1.12.17-1.69.26l-.52.08c2.54,1.61,3.81,3.89,3.79,6.77-.02,2.91-1.36,5.18-3.99,6.73-1.01.59-2.03.92-3.02.96-2.61.13-5.3.08-8.04-.17-3.02-.27-5.99-.78-8.84-1.5-9.3-2.35-17.6-6.8-24.66-13.2-3.8-3.47-7.12-7.4-9.85-11.67-3.53-5.56-6.07-11.69-7.53-18.19-.06-.25-.16-.38-.37-.52-1.79-1.12-3.23-2.6-4.27-4.43.08.61.16,1.22.25,1.83.72,4.77,2.05,9.47,3.93,13.96,3.62,8.59,9.02,16.08,16.05,22.26,5.54,4.86,11.83,8.67,18.71,11.32,4.24,1.64,8.58,2.78,12.91,3.41,1.7.24,3.54.44,5.76.6,1.17.08,2.11.12,2.98.12,1.12,0,2.13-.07,3.07-.21,2.81-.39,5.18-1.55,7.04-3.45,2.41-2.48,3.47-5.48,3.15-8.92-.22-2.29-1.14-4.38-2.72-6.22Z" fill="#a17d23"/>
  <path d="M122.48,55.85c-1.7-4.66-5.92-7.67-10.75-7.67-.66,0-1.32.06-1.97.17-2.07.36-3.96,1.26-5.59,2.69-.12.11-.16.18-.11.38.22,1.06.41,2.13.6,3.16l.05.25c.03.14.05.29.06.43,1.47-2.4,3.98-3.82,6.77-3.82.33,0,.67.02,1,.06,3.86.46,6.85,3.74,6.94,7.62.06,2.94-.03,5.52-.26,7.89-.3,2.94-.77,5.6-1.44,8.13-2.95,11.25-8.77,20.82-17.32,28.44-7.43,6.64-16.21,11.12-26.09,13.32-.26.05-.39.15-.53.37-1.13,1.77-2.64,3.19-4.49,4.23,2.4-.3,4.77-.73,7.07-1.28,5.96-1.46,11.64-3.75,16.85-6.84,5.78-3.41,10.92-7.7,15.29-12.74,1.95-2.26,3.78-4.75,5.44-7.42,3.87-6.21,6.57-12.96,8.03-20.07.55-2.67.9-5.17,1.06-7.65l.02-.28c.13-2.18.29-4.44,0-6.64-.15-1.06-.35-1.94-.64-2.76Z" fill="#a17d23"/>
  <path d="M107.51,41.6c-.64-.67-1.44-1.09-2.11-1.4.03-.04.06-.04.13-.06,1.94-1.28,2.49-3.77,1.24-5.69-.51-.8-1.21-1.18-2.04-1.12-.99.06-2.04.86-2.33,1.82-.26.77,0,1.57.63,1.98.45.29,1.16.22,1.53-.16.32-.32.42-.99,0-1.37-.16-.16-.35-.26-.54-.35.04-.06.1-.13.19-.19.57-.45,1.02-.38,1.37.25.35.61.45,1.21.32,1.88-.25,1.25-1.41,2.17-2.68,2.17h-.22c-1.44-.12-2.46-1.21-2.46-2.62,0-.35.03-.61.06-.86.13-.7.26-1.41.39-2.11l.38-2.2c.16-.9.32-1.82.45-2.75.22-1.66-.35-2.97-1.66-3.9-.1-.1-.12-.16-.12-.29v-.32l-.04-.06c-.16-1.66-1.12-2.68-2.78-2.97-.16-.03-.35-.06-.51-.06h-.16c-.16,0-.26-.03-.38-.22-.7-.99-1.66-1.57-2.78-1.63-.86-.06-1.72-.06-2.42-.06h-1.06c-.64,0-1.32,0-1.95.03-.8,0-1.59.03-2.4.03h-.26c-.86-.03-1.5-.25-2.01-.77-.64-.64-.9-1.57-.71-2.46.2-.87.8-1.6,1.63-1.95.99-.41,2.17-.19,2.87.51.32.29.38.51.29.77-.13.32-.32.55-.57.67-.06-.51-.39-.87-.93-.96h-.19c-.32,0-.74.13-.96.74-.13.32-.1.67.07.99.35.64,1.11.99,1.88.83,1.05-.19,1.98-1.08,2.14-2.08.19-.96-.23-1.75-1.21-2.43-.7-.44-1.5-.7-2.33-.7-1.95,0-3.64,1.31-4.09,3.19-.03.1-.03.19-.07.32-.12-.1-.25-.22-.35-.32-.77-.67-1.47-1.12-2.24-1.34-.28-.06-.61-.12-.93-.12-1.4,0-2.68.92-3.13,2.23-.13.38,0,.74.35.93.32.13.7.03.93-.29.06-.1.13-.19.19-.32.06-.1.1-.19.16-.29.6-.83,1.4-1.06,2.33-.6.38.16.77.41,1.25.8.73.58,1.37,1.31,2.02,2.2.83,1.22,2.01,1.85,3.48,1.88,1.31,0,2.66-.03,3.97-.03l.7-.03c.26,0,.55,0,.83-.03.39,0,.77-.03,1.15-.03.54,0,.99.03,1.4.1.64.09,1.12.35,1.5.77.51.54.8,1.28.73,2.01-.03.76-.42,1.47-.98,1.94-1.03.8-2.69.74-3.58-.12-.29-.29-.35-.48-.29-.67.09-.35.29-.61.6-.77.03.48.36.83.87.96.47.1.89-.1,1.11-.58.23-.38.23-.76,0-1.12-.25-.51-.67-.8-1.18-.86-1.09-.13-2.21.54-2.72,1.63-.38.93-.09,1.95.77,2.65.99.76,2.2,1.05,3.45.86l.09-.03-.03.07c-.16,1.08,0,2.07.55,2.93.48.77,1.15,1.16,1.92,1.18,1.15,0,2.33-.96,2.59-2.05.16-.73-.16-1.5-.8-1.85-.42-.19-1.06-.13-1.38.16-.45.38-.32.92-.29,1.12.12.38.38.64.77.7-.58.64-1.21.57-1.63-.22-.35-.64-.42-1.34-.19-2.01.22-.7.7-1.25,1.34-1.6.38-.19.83-.32,1.28-.32,1.41,0,2.65,1.12,2.65,2.46.03.8-.13,1.6-.26,2.39l-.03.1c-.1.61-.22,1.25-.32,1.86-.22,1.08-.44,2.23-.6,3.35-.1.6-.1,1.21,0,1.79.29,1.6,1.34,2.72,3.03,3.16,1.18.32,2.4.64,3.45,1.31.28.19.57.42.8.64.67.6.77,1.34.31,2.14-.06.13-.16.26-.29.42-.07.06-.13.16-.16.22-.29.39-.26.77.09,1.06.13.1.29.13.45.13.19,0,.38-.06.54-.26.63-.67,1.02-1.47,1.08-2.3.06-.9-.26-1.69-.99-2.43ZM98.5,24.19h-1.62v-1.47c.83-.07,1.51.58,1.62,1.47Z" fill="#a17d23"/>
  <path d="M49.35,13.54c.34,1.92,1.22,3.69,2.59,5.26.14.16.2.14.3.13,1.31-.24,2.61-.46,3.96-.69h0c-2.21-1.38-3.57-3.6-3.74-6.15-.17-2.56.91-4.97,2.95-6.61,1.33-1.07,2.8-1.64,4.36-1.69.74-.03,1.47-.04,2.21-.04,2.12,0,4.25.11,6.34.34,3.04.33,6,.89,8.83,1.65,8.99,2.44,17.05,6.89,23.95,13.21,5.35,4.89,9.68,10.76,12.87,17.45,1.77,3.74,3.14,7.67,4.06,11.67.06.27.17.43.39.56,1.78,1.08,3.21,2.54,4.29,4.35-.06-.36-.11-.71-.17-1.07-.19-1.23-.39-2.5-.66-3.73-1.69-7.8-4.85-15.08-9.42-21.64-4.68-6.74-10.57-12.4-17.49-16.82-7.94-5.06-16.66-8.18-25.93-9.27-2.01-.24-4.14-.47-6.27-.47-.99,0-1.9.05-2.78.15-.14.01-.28.02-.42.03-.26.02-.51.04-.75.09-3.17.64-5.58,2.07-7.35,4.37-2,2.62-2.72,5.61-2.12,8.89Z" fill="#a17d23"/>
  <path d="M45.79,16.9c-.99-1.79-2.72-2.46-4.48-1.66-.7.35-1.34.83-2.01,1.53-.06.03-.1.06-.13.13v-.09c-.42-1.57-1.38-2.59-2.87-3.03-1.47-.48-2.88-.16-4.09.9-.57.51-.86,1.15-.83,1.85.1,1.31,1.6,2.56,2.97,2.3.68-.13,1.21-.67,1.31-1.28.04-.32-.06-.67-.25-.92-.2-.22-.45-.39-.74-.39-.32-.03-.64.06-.83.29-.19.19-.32.45-.32.73-.41-.22-.64-.48-.64-.77-.03-.29.13-.57.48-.86.86-.7,2.08-.8,3.07-.25.96.54,1.54,1.66,1.37,2.72-.22,1.21-.95,2.01-2.1,2.2-.81.13-1.6.16-2.21.19-1.05.03-2.08.07-3.13.07-.64.03-1.31.03-1.95.06-.41,0-.83.03-1.24.13-1.21.19-2.14.77-2.72,1.72-.16.22-.32.32-.61.32-1.6.1-2.68.99-3.03,2.43-.1.35-.13.7-.13,1.02,0,.22-.06.35-.26.51-.96.83-1.44,1.88-1.38,3.13.03.57.1,1.15.23,1.66.22,1.02.44,2.05.7,3.07.23.89.42,1.79.64,2.68.09.54.22,1.15.13,1.76-.19,1.12-1.12,1.95-2.33,2.14-1.12.16-2.33-.51-2.81-1.5-.41-.86-.35-1.73.13-2.55.19-.32.35-.48.64-.45.38.06.64.19.86.45-.48.13-.77.48-.77,1.02s.35.96.96,1.02c.38.07.71-.03.99-.32.61-.54.74-1.31.35-2.04-.35-.77-.99-1.28-1.91-1.5-.64-.19-1.28-.03-1.79.42-.32.29-.57.6-.73.89-1.02,1.98-.25,4.41,1.69,5.5l.06.03-.12.06c-.73.42-1.54.9-2.14,1.66-1.29,1.69-.54,3.42.54,4.5.15.13.32.22.54.22.19,0,.39-.09.51-.22.13-.13.38-.51,0-.99-.06-.07-.12-.13-.16-.19-.13-.16-.26-.29-.35-.45-.45-.77-.41-1.47.19-2.11.26-.29.61-.58.99-.83.93-.57,1.95-.92,3-1.28.39-.13.89-.29,1.31-.57,1.47-.99,2.08-2.46,1.76-4.28-.19-1.02-.44-2.04-.7-3.07-.16-.67-.32-1.34-.45-2.05-.22-.92-.38-1.81-.48-2.65-.1-.64.1-1.21.51-1.72.67-.77,1.5-1.09,2.56-.96.89.1,1.69.67,2.07,1.56.39.86.32,1.79-.19,2.53-.22.32-.41.42-.7.35-.29-.03-.57-.19-.73-.42.22-.06.45-.19.61-.45.23-.42.19-.93-.1-1.25-.31-.35-.99-.48-1.43-.25-.55.32-.84.83-.84,1.47,0,.45.16.9.48,1.28.7.8,1.5,1.19,2.4,1.06.86-.1,1.47-.61,1.88-1.57.35-.8.42-1.7.22-2.59v-.1c.07.03.16.03.26.03,1.24.09,2.36-.26,3.29-1.09.73-.71.99-1.66.63-2.46-.44-.99-1.21-1.57-2.27-1.69-.7-.1-1.31.19-1.65.8-.3.45-.26.96.03,1.41.29.35.64.48,1.05.38.45-.09.8-.42.86-.86v-.13c.09.03.16.06.19.13.32.22.47.48.47.7s-.12.45-.44.74c-.54.48-1.22.7-2.02.64-1.31-.09-2.39-1.15-2.49-2.52-.09-1.09.55-2.39,1.95-2.68.44-.09.93-.16,1.5-.19.54-.03,1.11-.06,1.66-.06.38,0,.74,0,1.12-.03l.9-.03c.99,0,2.01-.03,3.03-.1,1.47-.1,2.63-.77,3.39-2.01.57-.9,1.21-1.72,1.98-2.4.39-.35.84-.7,1.44-.93.67-.25,1.28-.12,1.79.38.19.16.35.42.52.64l.06.1c.29.38.71.51,1.02.32.36-.22.45-.64.26-1.02ZM23.01,25.74c-.25.01-.5.05-.75.08h-.06c.11-.73.48-1.48,1.52-1.55,0,.03,0,.05,0,.08,0,.23,0,.47,0,.7.03.23.07.46.11.68h-.4c-.14,0-.28,0-.42,0Z" fill="#a17d23"/>
  <path d="M107.44,79.58l-.1-.03c.1-.06.19-.13.29-.16.77-.42,1.31-.83,1.76-1.34,1.53-1.69.86-3.55-.29-4.7-.04-.06-.13-.16-.23-.19-.35-.13-.67-.07-.86.16-.26.28-.26.61-.06.89.06.09.13.16.19.22.07.06.1.13.16.19.8.99.7,1.85-.2,2.65-.44.38-.95.73-1.53.99-.67.32-1.47.64-2.3.9-1.76.51-2.87,1.85-3.03,3.55-.06.48-.03,1.05.13,1.69.16.86.35,1.72.57,2.55.1.51.22,1.02.35,1.53l.13.58c.16.77.35,1.6.48,2.43.16.93-.13,1.73-.86,2.36-.57.48-1.25.67-2.04.64-.93-.06-1.76-.64-2.2-1.5-.42-.83-.38-1.79.09-2.55.23-.32.42-.45.67-.45h.07c.28.03.57.19.76.41-.42.13-.61.39-.67.64-.16.42-.06.93.25,1.18.36.28.99.35,1.38.13.6-.36.92-1.09.76-1.76-.23-.93-.83-1.56-1.85-1.92-.83-.28-1.6-.12-2.21.48-.61.64-.96,1.44-.99,2.43,0,.35.02.7.06,1.09.03.03.03.1.03.13h-.22c-1.31-.13-2.43.25-3.33,1.12-.67.64-.93,1.41-.7,2.2.29.99,1.34,1.85,2.36,1.92.83.07,1.6-.41,1.82-1.18.07-.29.07-.74-.38-1.18-.29-.29-.7-.35-1.12-.16-.51.25-.64.64-.64.92-.32-.16-.54-.38-.64-.7-.09-.29.03-.51.39-.83.77-.67,1.66-.86,2.68-.57,1.15.38,1.91,1.47,1.85,2.68-.03,1.05-.67,2.21-2.04,2.46-.51.1-1.06.16-1.66.16-.93.03-1.83.06-2.71.09-1.19.03-2.4.06-3.58.13-1.57.06-2.78.76-3.62,2.11-.64,1.03-1.34,1.85-2.14,2.5-.39.28-.8.54-1.22.73-.64.25-1.25.16-1.76-.35-.17-.19-.32-.38-.48-.61l-.16-.22c-.25-.35-.7-.45-1.02-.25-.29.19-.48.58-.16,1.09,1.02,1.83,2.9,2.43,4.7,1.44.8-.44,1.4-1.02,1.85-1.44.45,1.88,2.14,3.26,4.15,3.26.99,0,1.95-.35,2.72-.99.61-.54.92-1.18.92-1.85s-.35-1.28-.96-1.79c-.29-.26-.67-.45-.99-.54-.35-.1-.73-.1-1.08-.03-.76.12-1.35.86-1.22,1.6.07.51.46.93.93.96.54.04,1.03-.25,1.15-.73.03-.09.03-.19.03-.32.07.03.09.07.12.07.35.28.54.57.54.83,0,.22-.16.48-.48.73-.67.57-1.44.77-2.33.57-1.25-.29-2.14-1.38-2.14-2.68.03-1.31.86-2.3,2.14-2.52.7-.13,1.44-.16,2.07-.19,1.06-.04,2.11-.07,3.17-.07.64-.03,1.31-.03,1.98-.06.35,0,.77-.03,1.22-.13,1.25-.19,2.17-.77,2.78-1.66.16-.29.32-.38.67-.42,1.47-.09,2.59-.96,2.94-2.27.09-.38.16-.7.13-.99,0-.35.1-.55.35-.73.7-.58,1.15-1.38,1.31-2.33.09-.77,0-1.47-.13-2.04-.19-.8-.35-1.6-.54-2.37-.13-.57-.25-1.12-.38-1.66l-.07-.35c-.22-.86-.42-1.76-.57-2.65-.09-.61.03-1.22.35-1.75.51-.77,1.38-1.25,2.33-1.25s1.79.48,2.27,1.21c.61.96.64,1.92.07,2.88-.16.29-.36.45-.62.45h-.03c-.35-.06-.64-.19-.83-.41.42-.13.67-.45.7-.87.03-.16.13-.67-.35-1.02-.42-.29-.96-.29-1.38-.04-.54.32-.83,1.03-.74,1.66.23.99,1.06,1.82,2.18,2.04.64.16,1.18.03,1.63-.35.38-.29.64-.61.8-.92,1.06-2.01.35-4.38-1.63-5.53ZM101.26,95.88c.02.31-.09.61-.29.87-.28.36-.73.59-1.24.65-.04-.51-.08-1.01-.12-1.52h1.65Z" fill="#a17d23"/>
</svg>