<?xml version="1.0" encoding="UTF-8"?>
<svg id="Layer_1" xmlns="http://www.w3.org/2000/svg" version="1.1" viewBox="0 0 273.25 182.82">
  <!-- Generator: Adobe Illustrator 30.2.1, SVG Export Plug-In . SVG Version: 2.1.1 Build 1)  -->
  <g>
    <path d="M150.33,9.58c5.6-3.86,12.38-6.12,19.68-6.12,19.18,0,34.78,15.61,34.78,34.78,0,11.99-6.09,22.58-15.35,28.84l-2.61-3.18c8.35-5.49,13.87-14.94,13.87-25.66,0-16.92-13.77-30.69-30.7-30.69-6.74,0-12.99,2.19-18.06,5.89l-1.62-3.86Z" fill="#a17d23"/>
    <path d="M194.78,164.85l-1.78-2.41c-.14.55-.27,1.1-.4,1.64,1.8,2.66,2.55,5.56,2.4,8.45l2.27-6.63c-.11.01-.22.05-.33.05-.84,0-1.65-.4-2.16-1.09Z" fill="#a17d23"/>
    <path d="M179.36,86.51c-.36,1.61-1.1,5.17-1.27,7.83-.04.7-.04,1.45-.02,2.22l3.76,10.62c.29.34.58.69.9,1.06,1.37-3.75,4.12-12.22,2.75-21.3-.12,0-.26.02-.38.02-2.43,0-4.33-.2-5.75-.45Z" fill="#a17d23"/>
    <path d="M85.14,165.79s.18-.06.44-.14c-.12-.07-.23-.16-.35-.24l-.09.38Z" fill="#a17d23"/>
    <path d="M112.94,69.83c3.33,2.14-1.77,8.55-4.73,13.07-1.16,1.75-.09,2.3,1.77,2.3,2.94,0,7.88-1.37,9.26-1.59.05,0,.09-.01.13-.01,2.12,0,2.13,8.26,2.6,11.17.37,2.28,6.46,2.88,10.54,2.88,1.27,0,2.35-.06,3-.14.13-.02.25-.03.36-.03,2.36,0,2.21,3.37,3.8,3.71.06.01.13.02.21.02,1.87,0,8.91-3.4,10.59-4.23.03-.93.08-1.91.15-2.93-.37-4.49-.75-8.76-1.09-12.4l-1.29-10.68-7.71-6.07c-1.62-.28-3.75-.99-5.11-1.47-1.4.49-3.19.9-4.79.9-1.12,0-2.04-.24-2.79-.65-.17,0-.27,0-.27,0-.25-.19-.44-.42-.6-.66-.05-.05-.12-.1-.17-.15-.68-.81-.95-1.85-.76-2.97.28-1.54,1.26-4.01,1.98-5.68-.34-.32-.62-.68-.85-1.04-1-1.19-.92-2.38-.83-2.83,0-.06,0-.12,0-.19-.42.22-14.29,7.27-19.67,9.97-5.46,2.72,2.97,7.59,6.28,9.73Z" fill="#a17d23"/>
    <path d="M192.79,126.3c-.93-1.51-2.08-2.78-3.45-4.28-1.14-1.24-2.43-2.66-3.83-4.47l3.71,10.46c1.31-.68,2.56-1.29,3.58-1.71Z" fill="#a17d23"/>
    <path d="M174.43,86.35c.03.06.07.11.09.17l1.35,3.82c.28-1.7.61-3.29.84-4.28-.59.09-1.38.19-2.28.29Z" fill="#a17d23"/>
    <path d="M164.85,115.52c1.24,1.89,10.41,16.55,12.22,19.45,1.03-.6,2.17-1.21,3.35-1.3.22-.54.6-1,1.1-1.3.1-.06.24-.14.39-.24l-15.79-44.25c-.24-.66-.2-1.38.08-2-.78-.37-1.45-.92-1.88-1.74-.04-.07-3.81-7.41-1.83-11.13-.29-.29-.54-.62-.68-1.02l-8.09-23.44-12.04-5.32,3.09-20.18s.23.05.59.05c.16,0,.35-.01.55-.04.04-.11.07-.21.11-.32.46-1,1.28-1.76,2.34-2.14.39-.14.78-.2,1.19-.22,1.16-1.66,1.76-4.44-1.54-9.44,0,0-.24-.03-.62-.03-.97,0-2.87.23-4.28,1.82-1.96,2.22-3.2,5.25-3.47,6.68-.27,1.43-3.39,8.46-3.39,8.46,0,0-6.6,17.98-7.14,21.73,0,0-.05.17-.08.43,0,.12,0,.23-.02.35,0,.34.06.74.28,1.16.18.19.41.4.83.62.67.36,1.16.99,1.34,1.73.18.74.04,1.52-.39,2.15-1.18,1.74-1.98,3.93-2.01,4.96,1.46-.03,4.07-.19,5.97-.9.31-.12.63-.17.95-.17.4,0,.8.09,1.16.26,1.19.57,2.69,1.12,3.12,1.16.62,0,1.23.22,1.71.62l8.19,6.77c.54.45.89,1.09.96,1.79,0,.07.47,4.5,1.06,10.85l1.26,10.44s-.07.88-.14,2.22c.07.85.14,1.7.2,2.56.04.55-.08,1.08-.35,1.55-.06,3.84.11,8.35,1.06,10.45.04.02.08.03.12.05,2.64,1.27,8.95,4.5,10.51,6.91Z" fill="#a17d23"/>
    <path d="M129.03,50.01c-.01.1-.02.22-.02.35.01-.12.02-.23.02-.35Z" fill="#a17d23"/>
    <path d="M153.3,94.01c-.06,1.11-.12,2.54-.15,4.11.27-.46.4-1,.35-1.55-.07-.86-.14-1.71-.2-2.56Z" fill="#a17d23"/>
    <path d="M150.16,68.71l-8.19-6.77c-.48-.4-1.09-.62-1.71-.62-.43-.04-1.93-.59-3.12-1.16-.37-.18-.76-.26-1.16-.26-.32,0-.64.06-.95.17-1.89.71-4.51.87-5.97.9.03-1.04.83-3.22,2.01-4.96.43-.63.57-1.41.39-2.15-.18-.74-.67-1.37-1.34-1.73-.42-.22-.65-.43-.83-.62.18.35.46.69.91,1l.98,1.16s-2.14,4.64-2.51,6.68c-.16.93.72,1.27,1.95,1.27,1.49,0,3.47-.5,4.75-1.09,0,0,4.44,1.69,6.22,1.79l9.17,7.21,1.42,11.83c-.59-6.36-1.05-10.78-1.06-10.85-.07-.7-.42-1.34-.96-1.79Z" fill="#a17d23"/>
    <path d="M167.34,60.56c-.12,0-.29-.01-.48-.04l3.29,9.29c.2.57.2,1.19,0,1.76,2.06.47,4.08,1.1,5.3,1.48.06.02.12.04.17.05,2.13-.47,8.54-1.79,13.42-1.84-.23-.44-.41-.89-.52-1.35-.08-.4-.11-.8-.09-1.19-3.7-4.55-9.8-11.37-12.09-13.91-.37.17-.75.33-1.12.46-1.67,1.98-4.89,5.28-7.87,5.28Z" fill="#a17d23"/>
    <path d="M165.87,47.88c.13,3.62.88,7.56,1.63,8.76,1.2-.34,3.91-2.45,5.92-4.66.51-.56,1.23-.88,1.99-.88h0c.5,0,.94.17,1.35.42,4.4-2.84,7.42-8.64,5.77-14.36-1.66-5.79-7.23-8.42-12.13-8.42-1.02,0-2.02.12-2.95.34-5.34,1.3-6.77,8.67-6.53,12.95.08,1.52.54,2.52,1.07,3.22l1.25.03c1.43.03,2.58,1.17,2.63,2.59Z" fill="#a17d23"/>
    <path d="M164.25,46.71s.02.21.04.55c.13.2.22.41.23.66.04,1.2.14,2.39.29,3.51.11.73.24,1.5.4,2.35.35,1.74.81,3.12,1.28,3.78.25.19.53.29.84.29,2.4,0,6.29-4.91,6.29-4.91,1.09-.31,2.14-.8,3.12-1.43-.41-.25-.86-.42-1.35-.42h0c-.76,0-1.48.32-1.99.88-2.01,2.21-4.72,4.32-5.92,4.66-.76-1.2-1.5-5.14-1.63-8.76-.05-1.42-1.2-2.56-2.63-2.59l-1.25-.03c.98,1.27,2.26,1.45,2.26,1.45Z" fill="#a17d23"/>
    <path d="M165.67,56.05c.17.79.47,1.25.83,1.53-.48-.66-.93-2.04-1.28-3.78.13.72.28,1.46.45,2.25Z" fill="#a17d23"/>
    <path d="M164.3,47.27c.06.73.21,2.2.52,4.17-.15-1.12-.25-2.32-.29-3.51,0-.25-.1-.47-.23-.66Z" fill="#a17d23"/>
    <path d="M156.57,45.15h.06l1.96.04-7.49-21.2c-.1-.29-.29-.53-.53-.69-.29.28-.55.5-.76.68l-.26.23c-.34.31-.71.56-1.1.78l7.04,20.41c.34-.15.71-.24,1.09-.24Z" fill="#a17d23"/>
    <path d="M164.35,71.11l.28-.03c-.24-.46-.52-.97-.82-1.55l.55,1.58Z" fill="#a17d23"/>
    <path d="M149.81,23.98c.21-.18.47-.41.76-.68-.24-.17-.52-.26-.82-.26-.16,0-.31.02-.47.08-.75.28-1.12,1.09-.85,1.83l.02.04c.4-.22.77-.48,1.1-.78l.26-.23Z" fill="#a17d23"/>
    <path d="M157.43,48.12c2.99,7.82,5.08,11.43,6.61,14.07.62,1.06,1.15,2,1.62,2.99l-6.1-17.27-2.29-.05c.05.1.13.17.17.27Z" fill="#a17d23"/>
    <path d="M165.65,65.17c-.47-.99-1-1.92-1.62-2.99-1.52-2.64-3.62-6.25-6.61-14.07-.04-.1-.12-.17-.17-.27h-.69c2.85,9.96,8.05,17.55,8.05,17.55,1.26,2.3,2.24,4.16,2.86,5.33h.13s-1.96-5.56-1.96-5.56Z" fill="#a17d23"/>
    <path d="M156.57,45.15c-.38,0-.75.09-1.09.24l.41,1.18.12.05s0,0,0,0c.18-.08.37-.13.56-.13,0,0,1.16.03,2.5.06l-.48-1.35-1.96-.04h-.06Z" fill="#a17d23"/>
    <path d="M163.39,66.64c-.44-.97-.97-1.89-1.61-2.99l2.03,5.88c.3.57.58,1.08.82,1.55l1.13-.14c-.61-.91-1.51-2.38-2.38-4.3Z" fill="#a17d23"/>
    <path d="M156.01,46.62s0,0,0,0l-.12-.05.04.11s.05-.04.09-.06Z" fill="#a17d23"/>
    <path d="M165.77,70.94l.29-.04c-.62-1.17-1.51-2.85-2.61-4.86-.05-.08-.83-1.21-1.93-3.14l.26.75c.64,1.1,1.17,2.02,1.61,2.99.87,1.92,1.77,3.39,2.38,4.3Z" fill="#a17d23"/>
    <path d="M157.26,47.84l2.29.05-.48-1.36c-1.34-.03-2.49-.06-2.5-.06-.2,0-.39.05-.56.13.55.25.97.7,1.25,1.22Z" fill="#a17d23"/>
    <path d="M158.72,54.77c1.73,3.88,3.09,6.24,4.16,8.09.67,1.16,1.25,2.16,1.74,3.22,1.04,2.31,2.15,3.96,2.66,4.67l.21-.03c-.62-1.17-1.6-3.04-2.86-5.33,0,0-5.2-7.59-8.05-17.56h.69c-.28-.51-.7-.96-1.25-1.21-.03.01-.06.04-.09.06l2.8,8.1Z" fill="#a17d23"/>
    <path d="M163.45,66.04c1.1,2.01,1.99,3.69,2.61,4.86l1.21-.15c-.5-.7-1.61-2.36-2.66-4.67-.48-1.06-1.07-2.07-1.74-3.22-1.07-1.85-2.43-4.21-4.16-8.09l2.8,8.12c1.1,1.93,1.87,3.07,1.93,3.14Z" fill="#a17d23"/>
    <path d="M197.35,81.48c.59-2.42.27-3.58-2.61-5.24-1.03-.59-1.91-1.17-2.67-1.73-.29.13-.59.23-.92.26-4.72.33-12,.97-13.39,1.34-.33.09-.7.13-1.13.13-2.25,0-7.94-1.3-9.06-1.56-.12-.02-.23-.07-.34-.12-.21.06-.43.09-.66.09-.01,0-.27.02-.93.12-.08,1.54.37,4.87,1.36,7.79,0,0,.61.59,3.24.59,2.91,0,6.06-.73,6.09-.74.2-.05.41-.07.62-.07.71,0,1.4.28,1.9.79.19.19.34.41.46.65,1.29.25,3.21.5,5.8.5.46,0,.96-.01,1.46-.03.42-.3.92-.49,1.45-.51,4.1-.18,8.59-1.26,9.34-2.25Z" fill="#a17d23"/>
    <path d="M166.71,82.89c.4.77,2.01,1.01,3.86,1.01,3.04,0,6.75-.65,6.75-.65,0,0,.66.26,2,.52-.12-.23-.27-.45-.46-.65-.51-.51-1.2-.79-1.9-.79-.21,0-.41.02-.62.07-.03.01-3.18.74-6.09.74-2.63,0-3.24-.59-3.24-.59-.99-2.92-1.44-6.24-1.36-7.79.66-.1.92-.12.93-.12.23,0,.45-.04.66-.09-.49-.19-.91-.51-1.22-.93-.01,0-.03,0-.04,0-3.03,0-.32,7.24.74,9.27Z" fill="#a17d23"/>
    <path d="M175.52,75.88c-.7-.18-4.18-1.36-7.19-1.94-.31.29-.68.51-1.1.62.11.04.22.09.34.12,1.11.26,6.8,1.56,9.06,1.56.44,0,.8-.04,1.13-.13,1.39-.37,8.67-1.01,13.39-1.34.33-.03.63-.12.92-.26-.19-.14-.36-.27-.53-.41-.68-.1-1.42-.15-2.24-.15-5.58,0-13.77,1.93-13.77,1.93Z" fill="#a17d23"/>
    <path d="M167.23,74.56c.42-.11.79-.33,1.1-.62-.8-.15-1.57-.28-2.25-.31h-.07c.31.42.73.74,1.22.93Z" fill="#a17d23"/>
    <path d="M179.9,137.88c-.77.4-1.55.65-2.34.65-1.45,0-2.6-.7-3.2-1.35-.1-.11-.18-.22-.26-.34l-12.99-19.98c-1.32-.89-5.25-3.55-7.54-4.98-.32-.2-.62-.49-.89-.82-4.63.24-11.41,1.46-15.97,3.44-2.11.91-4.21,2.13-6.17,3.99.18.73.07,1.52-.37,2.16l-3.27,4.79c-.41.61-1.04.98-1.72,1.11-.33.78-.65,1.59-.94,2.46-3.03,8.9,2.22,25.03,3.38,27.97,1.16,2.93-.45,5.43-3.03,7.29-1.8,1.31-2.38,3.68-2.54,5.76,6.45-3.29,18.76-9.24,30.37-13.04.03-.02.05-.04.08-.06.77-.55,1.93-1.2,3.12-1.2.23,0,.46.03.67.08,6.43-1.84,12.41-2.82,16.73-2.04,1.83.33,3.51.73,5.09,1.18.08-.01.17-.03.24-.04.38-4.48,1.11-12.45,1.54-17.03Z" fill="#a17d23"/>
    <path d="M177.93,137.57c-.33.19-.64.26-.94.26-1.08,0-1.91-.98-1.91-.98,0,0-11.13-17.81-12.47-19.86-1.33-2.05-9.43-5.97-9.43-5.97-.15,0-.34.02-.5.03.27.33.57.62.89.82,2.29,1.43,6.22,4.09,7.54,4.98l12.99,19.98c.08.12.17.23.26.34.59.65,1.75,1.35,3.2,1.35.79,0,1.57-.25,2.34-.65.05-.52.09-1,.13-1.42-.66.24-1.44.72-2.1,1.11Z" fill="#a17d23"/>
    <path d="M152.5,156.94s-.06.04-.08.06c1.31-.42,2.6-.82,3.88-1.18-.22-.05-.44-.08-.67-.08-1.19,0-2.35.65-3.12,1.2Z" fill="#a17d23"/>
    <path d="M195.07,132.89c-.2-1.18-.44-2.17-.72-3.08-.7.16-1.88.59-3.91,1.66l4.21,11.89c.66-3.15,1.02-6.82.42-10.47Z" fill="#a17d23"/>
    <path d="M187.42,154.87c-.5-.68-.65-1.55-.41-2.36.23-.79.81-1.41,1.57-1.72,0-.01-.02-.02-.02-.04l-4.58-12.83s0,.03,0,.05c-.27,1.8-1.2,11.88-1.55,15.91.01.69-.21,1.39-.63,1.98-.06.09-.15.16-.22.24,3.83,1.47,6.76,3.33,8.89,5.42.15-.62.31-1.25.46-1.9l-3.51-4.76Z" fill="#a17d23"/>
    <path d="M193.97,128.72c-1,.4-2.39,1.08-3.85,1.85l.32.89c2.02-1.07,3.21-1.5,3.91-1.66-.12-.38-.24-.74-.37-1.09Z" fill="#a17d23"/>
    <path d="M182.42,153.88c.35-4.03,1.28-14.11,1.55-15.91,0-.02,0-.04,0-.05l-.76-2.12c-.15.1-.3.19-.46.29-.02.24-.04.51-.07.81.03.38-.02.71-.04.87-.04.24-.09.63-.14,1.1-.46,4.94-1.2,12.95-1.53,16.99.21.08.39.16.6.24.07-.08.15-.15.22-.24.42-.59.64-1.29.63-1.98Z" fill="#a17d23"/>
    <path d="M182.76,136.1c.16-.1.31-.2.46-.29l-.34-.95c-.02.22-.06.66-.12,1.24Z" fill="#a17d23"/>
    <path d="M182.64,137.78c.03-.16.07-.49.04-.87-.05.58-.11,1.23-.18,1.97.05-.47.1-.86.14-1.1Z" fill="#a17d23"/>
    <path d="M248.2,122.88c4.43.7,10.51,3.97,11.46,5.02.93,1.06,2.09,2.92,3.15,3.51,1.01.56.2,7.41,2.98,7.41.13,0,.27-.01.41-.04,3.27-.7,9.12-1.64,6.31-5.5-2.8-3.85-5.96-8.52-10.28-10.98-3.66-2.08-12.06-7.45-17.8-7.45-1.02,0-1.96.17-2.77.56-4.07,1.95-8.94,4.22-11.06,5.21.22,2.13.25,4.11.12,5.9,2.23-.29,5.16-.63,7.71-.82l1.06-.08c.45-.04.9-.07,1.35-.1,1.24-1.06,3.61-2.71,6.34-2.71.34,0,.68.03,1.02.08Z" fill="#a17d23"/>
    <path d="M209.98,78.82c-.67-2.22.82-2.61,2.88-2.61.42,0,.87.02,1.34.04,2.69.11,7.01,3.74,9.35,3.86h.14c2.37,0,6.88-2.95,6.88-4.56s-2.69-4.79-4.68-4.79-9.22-4.33-9.22-4.33c.23-3.27-8.53-4.21-7.13-6.43,1.4-2.22.59-2.45.59-2.45-8.42.46-17.18,8.06-18.59,10.05-.1.14-.15.29-.21.44.82,1.05,1.5,1.95,1.92,2.6.23.36.35.76.39,1.17,3.57,1.11,7.91,4.29,7.84,8.21-.04,2.28-1.45,5.2-7.96,6.23-1.84.29-3.6.46-5.33.57,1.58,11.1-2.46,21.1-3.45,23.78,4.5,5.37,10.26,12.32,11.08,13.38,1.04,1.32,1.88,2.41,1.47,3.77.78,1.65,2.29,6.15.59,14.11-.34,1.61-.81,3.68-1.35,5.97l.44-.17c.3-.11.62-.17.93-.17.57,0,1.14.18,1.61.54.74.55,1.13,1.43,1.06,2.34l-.07.97,9.36-3.24c1.21,1.43,2.4,1.88,3.4,1.88,1.71,0,2.91-1.29,2.91-1.29,0,0,23.03-11.11,25.83-12.51.32-.16.71-.24,1.14-.24,3.3,0,9.31,4.33,11.48,7.01,2.45,3.04,2.22,4.32,2.57,6.2.34,1.88-1.05,2.22-2.11,4.21-1.06,1.99,6.08,6.67,7.83,7.25.25.09.48.13.68.13,1.14,0,1.37-1.7,1.77-8.08.47-7.48-9.12-17.65-13.2-21.5-2.66-2.51-5.58-3.09-8.6-3.09-.54,0-1.09.04-1.64.07-.02,0-.04.03-.05.05-.44.48-1.04.78-1.68.86l-10.64,1.17c-.1.01-.2.02-.29.02-.61,0-1.19-.21-1.67-.59-.05.01-.08.01-.08.01,0-.02,0-.05.01-.07-.1-.09-.21-.17-.3-.28-.57-.67-.78-1.58-.56-2.44.22-.82.25-3.55.15-5.6-.04-.82.3-1.6.89-2.13-.81-5.58-2.95-12.35-7.32-19.38-7.84-12.62-9.58-18.24-10.41-20.92Z" fill="#a17d23"/>
    <path d="M195.74,126.05c.47.21.88.54,1.17.99.05.09.2.36.37.72.41-1.37-.43-2.45-1.47-3.77-.83-1.06-6.59-8.01-11.08-13.38-.16.41-.24.66-.21.7,4.7,7.91,8.75,9.88,11.23,14.74Z" fill="#a17d23"/>
    <path d="M193.22,70.64c-.41-.65-1.09-1.56-1.92-2.6-.51,1.14.04,2.31,1.38,3.52.3.06.61.15.93.25-.05-.41-.17-.81-.39-1.17Z" fill="#a17d23"/>
    <path d="M193.61,72.32c.7.52,1.53,1.05,2.46,1.59,3.86,2.22,4.8,4.56,3.86,8.3-.93,3.75-11.81,4.21-11.81,4.21.02.14.03.27.05.41,1.72-.11,3.48-.28,5.33-.57,6.5-1.03,7.92-3.95,7.96-6.23.07-3.92-4.27-7.11-7.84-8.21.02.17.01.34,0,.51Z" fill="#a17d23"/>
    <path d="M193.62,71.81c-.32-.1-.62-.18-.93-.25.28.25.58.5.92.76.01-.17.02-.34,0-.51Z" fill="#a17d23"/>
    <path d="M196.81,128.66c.36,1.11.67,2.34.91,3.79.94,5.7-.21,11.36-1.48,15.39l.03.08.25-.09c.54-2.29,1.01-4.36,1.35-5.97,1.7-7.97.18-12.47-.59-14.11-.05.16-.1.31-.18.48-.07.16-.19.29-.29.42Z" fill="#a17d23"/>
    <path d="M195.74,126.05c.4.78.76,1.64,1.07,2.61.1-.14.21-.27.29-.42.08-.17.13-.32.18-.48-.17-.36-.31-.63-.37-.72-.29-.45-.7-.77-1.17-.99Z" fill="#a17d23"/>
    <path d="M229.56,130.22l10.64-1.17c.64-.07,1.24-.38,1.68-.86.02-.01.03-.04.05-.05-1.09.05-2.2.14-3.31.22-4.48.33-10.28,1.17-11.02,1.27.47.38,1.06.59,1.67.59.09,0,.2,0,.29-.02Z" fill="#a17d23"/>
    <path d="M226.81,121.25c.1,2.05.08,4.78-.15,5.6-.22.86,0,1.77.56,2.44.09.11.2.19.3.28.6-2.43.8-6.07.17-10.46-.59.53-.92,1.31-.89,2.13Z" fill="#a17d23"/>
    <path d="M122.69,115.63c-1.44-2.2-4.42-4.77-8.62-4.77-1.59,0-3.36.37-5.29,1.27-7,3.27-13.78,12.85-13.54,26.53.23,13.67-6.79,23.6-8.31,24.66,0,0,8.18-2.58,12.28-11.81,4.09-9.23,10.64-19.05,13.09-22.08,2.06-2.57,7.03-5.87,10.58-5.87.25,0,.47.03.71.07.95-1.91,1.98-3.51,3.06-4.86-1.13-.43-2.76-1.32-3.95-3.13Z" fill="#a17d23"/>
    <path d="M126.16,121.76c.31-.5.63-.97.96-1.41l.83-1.22s-.55-.09-1.31-.38c-1.08,1.35-2.12,2.96-3.06,4.86.39.06.76.15,1.1.31l1.48-2.16Z" fill="#a17d23"/>
    <path d="M126.16,121.76l.96-1.41c-.33.44-.65.91-.96,1.41Z" fill="#a17d23"/>
    <path d="M179.47,108.54c-1.02-1.21-1.76-2.08-2.04-2.37-1.1-1.2-1.85-5.46-2.02-9.09l-3.42-9.66-3.33-.45,15.61,43.78c.78-.45,1.65-.94,2.56-1.45l-7.35-20.76Z" fill="#a17d23"/>
    <path d="M178.13,104.78l-.45-1.28c.15.53.3.96.45,1.28Z" fill="#a17d23"/>
    <path d="M179.47,108.54l-1.33-3.76c-.15-.32-.3-.75-.45-1.28l-2.28-6.42c.17,3.62.92,7.89,2.02,9.09.28.3,1.02,1.17,2.04,2.37Z" fill="#a17d23"/>
    <path d="M193.41,147.89l-5.35-15.09c-.75.44-1.6.95-2.52,1.52l5.54,15.53.68-.25,1.19-.44c.15-.39.3-.82.45-1.28Z" fill="#a17d23"/>
    <path d="M187.73,131.87c-.92.51-1.8,1.01-2.55,1.45l.36,1c.92-.57,1.77-1.08,2.52-1.52l-.33-.92Z" fill="#a17d23"/>
    <path d="M184.26,130.75l.35.98c.82-.51,1.67-1.02,2.53-1.51l-.33-.92c-.9.51-1.78,1-2.56,1.45Z" fill="#a17d23"/>
    <path d="M187.15,130.22c-.87.5-1.71,1-2.53,1.51l.11.31c.76-.45,1.63-.94,2.55-1.45l-.13-.37Z" fill="#a17d23"/>
    <path d="M187.6,131.51c-.78.45-1.63.97-2.52,1.52l.1.29c.75-.43,1.63-.94,2.55-1.45l-.13-.36Z" fill="#a17d23"/>
    <path d="M184.72,132.04l.36,1c.89-.55,1.74-1.07,2.52-1.52l-.32-.93c-.92.5-1.79,1-2.55,1.45Z" fill="#a17d23"/>
    <path d="M193.41,147.89c-.15.46-.3.88-.45,1.28l.54-.2c.04-.16.08-.33.12-.49l-.21-.58Z" fill="#a17d23"/>
    <path d="M193.61,148.47c-.04.16-.08.32-.12.49l.25-.09-.14-.4Z" fill="#a17d23"/>
    <path d="M194.53,156.2c-.23.96-.46,1.91-.7,2.84l3.11,4.21.59-8.03-2.68.93c-.11.04-.22.03-.32.05Z" fill="#a17d23"/>
    <path d="M191.52,152.56l-1.95.72,2.18,2.95c.07-.28.14-.56.2-.84,0,0-.01-.01-.02-.02-.67-.78-.82-1.87-.42-2.81Z" fill="#a17d23"/>
    <path d="M193.97,156.3c-.28,0-.56-.06-.82-.15-.12.5-.24.99-.36,1.48l1.04,1.41c.24-.94.47-1.89.7-2.84-.19.04-.37.1-.55.1Z" fill="#a17d23"/>
    <path d="M191.75,156.23l1.04,1.41c.12-.5.24-.99.36-1.48-.45-.14-.87-.4-1.2-.77-.07.28-.13.56-.2.84Z" fill="#a17d23"/>
    <path d="M197.74,152.31l.16-2.12-2.12.79c-.17.72-.34,1.45-.52,2.19l2.48-.86Z" fill="#a17d23"/>
    <path d="M193.97,153.61l1.28-.44c.17-.74.35-1.47.52-2.19l-.75.28c-.6,1.47-1.05,2.35-1.05,2.35Z" fill="#a17d23"/>
    <path d="M194.89,154.71c-.12.5-.24,1-.36,1.49.11-.02.22-.01.32-.05l2.68-.93.11-1.46-2.75.95Z" fill="#a17d23"/>
    <path d="M191.94,155.36s.01.01.02.02c.27-1.1.54-2.2.79-3.28l-1.23.45c-.4.94-.26,2.03.42,2.81Z" fill="#a17d23"/>
    <path d="M193.97,154.96c-.17,0-.34-.04-.5-.11-.11.44-.21.87-.32,1.31.26.08.54.15.82.15.19,0,.37-.06.55-.1.12-.49.24-.99.36-1.49l-.47.17c-.14.05-.29.08-.44.08Z" fill="#a17d23"/>
    <path d="M192.96,154.49c-.36-.41-.43-1.01-.17-1.5,0-.02.21-.41.51-1.09l-.52.2h-.02c-.26,1.09-.52,2.18-.79,3.29.33.37.75.62,1.2.77.1-.44.21-.88.32-1.31-.19-.08-.37-.19-.51-.36Z" fill="#a17d23"/>
    <path d="M195.26,153.17c-.13.51-.25,1.03-.37,1.55l2.75-.95.1-1.46-2.48.86Z" fill="#a17d23"/>
    <path d="M193.97,153.61s.45-.88,1.05-2.35l-.3.11s-.03.02-.05.03l-.42.15c-.26,1.08-.52,2.19-.79,3.29.16.07.33.11.5.11.15,0,.29-.03.44-.08l.47-.17c.12-.52.24-1.03.37-1.55l-1.28.44Z" fill="#a17d23"/>
    <path d="M192.78,152.99c-.25.49-.19,1.08.17,1.5.14.17.32.28.51.36.27-1.11.53-2.21.79-3.29l-.98.35c-.3.68-.5,1.07-.51,1.09Z" fill="#a17d23"/>
    <polygon points="192.77 152.1 193.29 151.9 193.29 151.9 192.77 152.1" fill="#a17d23"/>
    <path d="M194.26,151.55l.42-.15s.03-.03.05-.03l-.46.17h0Z" fill="#a17d23"/>
    <polygon points="193.29 151.9 193.29 151.9 194.26 151.55 194.26 151.54 193.29 151.9" fill="#a17d23"/>
    <path d="M141.72,0c-.18,0-.37.03-.55.11-.73.3-1.08,1.13-.78,1.86l2.34,6.89,2.63-1.09-2.33-6.89c-.23-.55-.76-.88-1.31-.88Z" fill="#a17d23"/>
    <path d="M110.34,174.19s16.87-6.39,16.87-18.92,7.67.26,7.67.26c0,0-6.4,17.12-24.54,18.66Z" fill="#a17d23" fill-rule="evenodd"/>
  </g>
  <g display="none">
    <path d="M-131.24,194.17h0c3.73.57,471.11.68,475.64.12l-26.49-2.7-12.06-1.04-14.92.05c-8.19.03-15.01-.05-15.13-.16-.12-.12-.05-.66.17-1.22.71-1.86.83-6.39.22-8.75-1.38-5.39-8.09-15.48-10.3-15.48-.98,0-.96.16.43,3.76,1.68,4.36,2.35,7.15,2.57,10.76.27,4.42-.38,6.3-3.12,8.97l-2.06,2.02h-11.96l1.36-1c2.08-1.51,3.95-3.76,4.98-5.96.79-1.69.92-2.43.92-5.27,0-4.05-.82-6.51-3.25-9.71-2.91-3.86-6.88-6.4-12.23-7.86-4-1.1-13.72-1.1-19.14,0-11.76,2.37-20.35,5.94-42.62,17.73-10.12,5.35-17.85,8.56-25.01,10.36-2.23.57-4.26,1.02-4.54,1.02s.92-.76,2.68-1.7c5.86-3.12,10.15-6.64,15.08-12.38,6.68-7.79,10.8-14.76,9.39-15.92-.63-.53-1.53.34-3.77,3.67-2.28,3.37-4.88,6.49-8.64,10.35-8.84,9.05-17.92,14.21-28.54,16.19-2.95.55-5.23.65-14.51.65h-11.02l-1.93-.91c-3.09-1.45-4.95-3.34-5.7-5.78-.23-.74-.16-.8,1.01-.8,4.46,0,9.34-5.98,6.74-8.26-1.4-1.22-3.37-1.89-5.53-1.89h-2.06v-8.72c0-13.65,1.08-21.85,3.52-26.87,1.5-3.06,5.08-6.78,7.8-8.1,5.31-2.58,14.34-2.12,21.11,1.1,3.12,1.48,6.78,5.17,8.47,8.54,1.14,2.27,1.22,2.65,1.22,5.75,0,2.7-.15,3.63-.79,5.04-1.95,4.23-5.29,6.66-9.16,6.66-2.7,0-5.3-.89-6.29-2.16-.49-.63-.7-1.42-.7-2.61,0-1.56.13-1.84,1.48-3.08.82-.76,2.33-2.04,3.4-2.88,1.4-1.11,2-1.86,2.23-2.78.41-1.63-.23-3.28-1.55-3.97-1.12-.57-3.73-.67-5.03-.18-1.44.54-4.03,3.14-5.04,5.07-.83,1.59-.92,2.13-.92,5.43s.09,3.84.93,5.43c2.39,4.52,7.49,6.81,13.38,6.03,8.06-1.08,14.74-9.92,13.5-17.85-.51-3.16-2.69-7.3-5.44-10.29-3.66-3.99-8.29-6.7-13.72-8.02-3.14-.76-10.85-.77-14.41,0-6.52,1.39-12.16,5.66-14.9,11.32-.75,1.57-1.46,2.87-1.55,2.87s-.8-1.3-1.56-2.87c-2.74-5.66-8.37-9.93-14.89-11.32-3.56-.77-11.28-.75-14.42,0-5.43,1.32-10.06,4.02-13.73,8.02-2.74,2.98-4.92,7.13-5.42,10.29-1.25,7.93,5.43,16.77,13.49,17.85,5.9.78,10.99-1.51,13.38-6.03.84-1.58.94-2.12.94-5.43s-.1-3.84-.93-5.43c-1.01-1.93-3.6-4.53-5.04-5.07-1.29-.49-3.91-.4-5.02.18-1.33.68-1.97,2.33-1.56,3.97.24.92.84,1.67,2.23,2.78,1.07.84,2.58,2.12,3.41,2.88,1.37,1.24,1.5,1.51,1.5,3.08,0,1.2-.22,1.98-.71,2.61-1.01,1.27-3.62,2.16-6.32,2.16-3.87,0-7.21-2.43-9.16-6.66-.65-1.41-.8-2.34-.8-5.04,0-3.1.08-3.48,1.22-5.75,1.69-3.36,5.35-7.05,8.46-8.54,6.76-3.21,15.8-3.68,21.11-1.1,2.72,1.32,6.3,5.04,7.81,8.1,2.47,5.02,3.55,13.22,3.55,26.87v8.72h-2.1c-3.19,0-6.29,1.67-6.29,3.4,0,3,4.16,6.76,7.49,6.76,1.16,0,1.24.06,1.02.8-.75,2.44-2.62,4.33-5.71,5.78l-1.93.91h-11.02c-12.19,0-15-.31-21.15-2.34-10.75-3.55-22.2-12.87-30.59-24.89-2.48-3.56-3.1-4.16-3.77-3.62-.59.49-.26,1.69,1.28,4.65,1.49,2.86,4.34,6.79,8.16,11.25,4.92,5.74,9.21,9.26,15.07,12.38,1.76.94,2.97,1.7,2.68,1.7s-2.32-.45-4.55-1.02c-7.15-1.8-14.88-5.01-25-10.36-22.27-11.79-30.87-15.36-42.62-17.73-5.43-1.09-15.14-1.09-19.14,0-5.36,1.46-9.32,4.01-12.23,7.86-2.43,3.21-3.25,5.66-3.25,9.71,0,2.83.13,3.58.91,5.27,1.02,2.2,2.91,4.45,4.98,5.96l1.37,1h-11.95l-2.07-2.02c-2.74-2.68-3.39-4.55-3.12-8.97.22-3.6.88-6.39,2.57-10.76,1.39-3.6,1.41-3.76.43-3.76-2.2,0-8.92,10.09-10.31,15.48-.6,2.37-.48,6.89.23,8.75.22.56.29,1.1.17,1.22-.12.12-6.94.19-15.13.16l-14.91-.05M38.78,189.43l3.85,1.4-13.12-.08c-7.22-.05-23.77-.12-36.79-.17l-23.68-.08,1.49-1.49c.82-.82,1.87-2.26,2.35-3.23.75-1.52.86-2.23.86-5.43s-.1-3.91-.84-5.41c-.47-.97-1.49-2.4-2.3-3.23-1.34-1.38-1.58-1.5-3.18-1.5-.96,0-1.92.19-2.16.43-.75.75-.5,2.87.51,4.33,2.81,4.06,3.27,4.84,3.6,6.03.94,3.36.19,5.34-2.52,6.63-4.39,2.09-11.17.81-14.35-2.71-2.16-2.39-2.53-3.36-2.53-6.69,0-2.63.13-3.24,1.14-5.36,2.02-4.23,6.82-7.88,12.01-9.12,3.25-.77,9.36-1.03,13.25-.55,8.57,1.04,15.18,3.01,25.6,7.6l4.46,1.97-2.36.76c-3.96,1.28-5.03,1.92-4.91,2.93.11.88.18.9,3.94,1.12,4.23.25,10.5,1.32,14.32,2.45,1.35.4,5.86,2.36,9.99,4.36,4.12,1.99,9.26,4.26,11.37,5.03h0ZM218.89,190.49c-9.86,0-26.41.08-36.79.18l-18.88.19,3.84-1.42c2.11-.78,7.24-3.05,11.37-5.04,4.12-1.99,8.63-3.96,9.99-4.36,3.81-1.13,10.09-2.2,14.32-2.45,3.76-.22,3.83-.24,3.94-1.12.12-1.01-.94-1.66-4.9-2.93l-2.36-.76,4.46-1.97c10.41-4.59,17.03-6.56,25.6-7.6,3.89-.48,10-.22,13.25.55,5.2,1.24,10,4.89,12.01,9.12,1.01,2.13,1.14,2.73,1.14,5.36,0,3.33-.37,4.3-2.53,6.69-3.18,3.52-9.95,4.79-14.35,2.71-2.71-1.29-3.46-3.27-2.52-6.63.33-1.19.79-1.97,3.6-6.03,1.01-1.46,1.26-3.58.51-4.33-.24-.24-1.2-.43-2.17-.43-1.6,0-1.85.12-3.18,1.5-.81.83-1.82,2.26-2.3,3.23-.74,1.5-.85,2.21-.85,5.41s.12,3.91.87,5.43c.48.97,1.53,2.41,2.35,3.23l1.48,1.49h-17.91Z" fill="#a17d23"/>
  </g>
  <g>
    <path d="M72.76,177.33l.11-.2-3.58-1.9c-.12.14-.24.27-.37.41,1.86.84,3.19,1.41,3.84,1.69Z" fill="#a17d23"/>
    <path d="M50.73,89.73c.31.08.8.22,1.39.39,1.84.53,4.91,1.42,6.43,1.42.44,0,.56-.08.56-.08.03-.44-.03-1.16-.09-1.85-.09-1.08-.18-2.11.23-2.74.11-.19.27-.38.43-.59.29-.37.68-.86.62-1.14-.04-.17-.29-.33-.44-.41l-5.45-1.65c-.39,0-1.71.04-2.44.55-.59.41-1.84,3.91-1.53,5.6.03.18.11.47.28.52Z" fill="#a17d23"/>
    <path d="M54.12,80.85h.09c5.23.8,9.24,3.41,10.04,3.96l3.92.08c-.92-1.32-2.82-3.32-3.61-4.1l-.1-.11-.04-.14c-.03-.14-3.65-14.54-5.64-19.15-1.57-3.65-7.12-8.6-9.26-10.42l-.2,30.1,1.62.4,3.18-.63Z" fill="#a17d23"/>
    <path d="M48.52,82.71c-.29.29-.7.43-1.22.43-1.08,0-2.46-.64-2.83-.83-.04,0-.09,0-.14,0-.67,0-1.52.24-1.76,1.41-.47,2.34-.24,2.85.37,3.02,1.12.31,1.75.42,1.75.42l.68.1-.28.63c-.03.08-3.35,7.73-2.2,25.2.15,2.19.29,4.25.43,6.18.98,14.03,1.47,21.08-1.28,24.42l-.22.26-3.09-.83s-.27.1-.73.75c-.12.17-.25.34-.37.49-.58.76-.93,1.22-.62,2.5.41,1.73.53,2.26,2.32,2.83,1.87.59,16.6,5,18.57,5.59.13.04.21.06.22.07.05.02.5.19,1.02.19s.92-.18,1.19-.54l.11-.15c1.15-1.51,4.65-6.08,3.64-14.76-.2-1.74-.53-3.82-.87-6.02-1.52-9.69-3.6-22.97-.29-35.95l.52-1.26,4.04,1.29s.08.04.17.04c.21,0,.44-.22.65-.62.7-1.3,1.33-4.11,1.33-4.13l.13-.56.55.18s.77.25,1.49.25c.53,0,.86-.13.96-.38.28-.67,1.13-2.7.78-3.54-.06-.13-.14-.21-.27-.26-1.41-.54-1.98-.87-2-.88-.1-.07-1.13-1.01-2.32-1.01h-.15c-.49.05-1.43,0-2.49-.1-1.76-.15-3.82-.4-4.64-.5-.27.55-.8,1.97-.5,4.29.12.91-.05,1.64-.5,2.15-.46.52-1.16.78-2.1.78-.83,0-1.57-.21-1.6-.23-1.88-.3-8.25-1.49-8.49-3.53-.18-1.47.04-5.68,1.24-7.34-.24-.11-.53-.21-.78-.21s-.36.09-.42.15Z" fill="#a17d23"/>
    <path d="M57.91,155.28c-1.97-.59-16.71-5-18.57-5.59,1.87.59,16.6,5,18.57,5.59Z" fill="#a17d23"/>
    <path d="M47.3,83.14c.52,0,.93-.15,1.22-.43-.29.29-.7.43-1.22.43Z" fill="#a17d23"/>
    <path d="M68.81,87.24c-.5.04-1.44,0-2.49-.1,1.06.09,2,.15,2.49.1Z" fill="#a17d23"/>
    <path d="M61.17,90.93c.12.91-.05,1.64-.5,2.15-.46.52-1.16.78-2.1.78.94,0,1.64-.26,2.1-.78.45-.51.62-1.24.5-2.15Z" fill="#a17d23"/>
    <path d="M51.67,156.26l-1.7,9.98c3.39,1.83,6.88,3.62,10.38,5.35l-.95-13.8-7.73-1.53Z" fill="#a17d23"/>
    <path d="M39.83,160.5c1.46.87,2.91,1.71,4.34,2.52l1.34-8.62c-1.15-.14-3.93-.6-7.5-2.01-1.48-.59-2.53-1.56-3.08-2.87-1.09-2.62.09-5.67.34-6.26.75-1.77,2.43-2.6,4.35-2.12.32.08.59-.02.86-.31.86-.96,2.1-4.48.73-17.28-1.41-13.19-.7-22.9-.42-25.88-1.29.16-2.82-1.36-3.59-2.29l-.47.81c-1.03,1.83-2.25,1.35-2.4,1.28-2.27-.92-4.19-3.94-5.3-6.07.09,8.18.38,34.03.29,35.76-.02.37.06,1.44.16,2.8.44,5.94,1.35,18.31-1.76,22.5-.82,1.09-1.91,1.87-3.27,2.32,5.74,1.15,10.9,3.08,15.37,5.75Z" fill="#a17d23"/>
    <path d="M47.77,165.04c.74-4.75,1.31-8.44,1.5-9.68l-1.34-.42-1.53,9.34c.46.26.91.51,1.37.76Z" fill="#a17d23"/>
    <path d="M25.98,39.53c-.05-.77.05-1.67.45-2.66,1.07-2.68,2.8-6.23,6.61-9.95.12-.1,2.39-2.1,5.1-2.1,1.72,0,3.2.79,4.42,2.34,3.64,4.66,7.69,11.25,7.73,11.32l.08.13v.15c0,.38-.05,3.64-1.48,5.1l.33,4.28,1.9,1.26c.21-2.33.75-8.86.44-13.42-.4-6.16-4.17-16.3-12.58-17.27-.45-.05-.88-.08-1.3-.08-7.69,0-11.74,8.16-11.78,8.24-.02.04-2.08,4.49-1.47,14.03.38,6.03.02,9.14-.33,10.66l2.5-1.22.17-8.25c-.05-.07-.1-.16-.16-.28-.24-.46-.56-1.26-.62-2.29Z" fill="#a17d23"/>
    <path d="M25.98,39.53c-.05-.77.05-1.67.45-2.66-.4.99-.5,1.89-.45,2.66Z" fill="#a17d23"/>
    <path d="M37.62,27.05c-3.09.48-6.78,6.04-7.46,7.11.23.93,1.41,4.97,5.19,7,.54.29,1.14.54,1.78.74.55.16,1.08.24,1.57.24,4.08,0,5.75-5.54,6.22-7.53-1.19-2.34-4.6-7.92-7.3-7.57Z" fill="#a17d23"/>
    <path d="M30.16,34.15c.23.93,1.41,4.97,5.19,7-3.78-2.04-4.96-6.08-5.19-7Z" fill="#a17d23"/>
    <path d="M30.87,61.84c1.51,0,2.65.18,3.37.53,1.87.89,3.2,3.49,1.95,7.29,0,.03-.79,2.29-.93,3.43-.2,1.43-2.57,8.21-6.45,9.03.5,1.97,2.33,8.53,4.91,10.87.25.32.76.83,1.14.83.29,0,.53-.36.67-.67.35-.72.84-1.55,1.58-1.55.7,0,1.09.72,1.41,1.31l.16.3c.18.35.51.97.85,1.26.12.09.23.16.34.16.26,0,.62-.32.99-.89.3-.46.55-.92.75-1.38.61-1.37.82-2.65.89-3.29-.63-.17-1.7-.57-2.28-1.44-.41-.61-.51-1.33-.31-2.14.95-3.79,2.54-5.7,4.71-5.7.1,0,.22,0,.33.01l.14.04,1.73.67c.04-.08.1-.25.13-.62.07-1.29-.3-39.57-.32-41.78-.07-.18-.23-.59-.44-1.06-.62,2.51-2.46,7.18-7.56,7.18h-.3c-5.33-.19-8.11-4.77-9.21-7.18l-.52,1.73.34,23.17c.46-.04,1.17-.08,1.93-.08Z" fill="#a17d23"/>
    <path d="M46.19,37.03c.21.46.38.88.44,1.06-.07-.18-.23-.59-.44-1.06-.62,2.51-2.46,7.18-7.56,7.18,5.1,0,6.95-4.67,7.56-7.18Z" fill="#a17d23"/>
    <path d="M42.51,89.05c-.08.64-.29,1.92-.89,3.29.61-1.37.83-2.65.89-3.29Z" fill="#a17d23"/>
    <path d="M33.64,64.69c-.42-.61-1.16-.81-2.19-.64l-.08.02h-.09s-.22-.04-.55-.04c-1.22,0-3.38.36-4.08,2.8-1.06,3.72-1.84,11.18-.81,12.56.15.21.18.12.25.1.51-.13,1.01-.22,1.5-.3,1.87-.31,3.35-.56,4.44-3.44,2.05-5.41,2.64-9.54,1.6-11.06Z" fill="#a17d23"/>
    <path d="M94.54,182.82l-8.64-5.97-13.25-11.89.03-.27c.43-3.97,1.28-5.01,1.37-5.12l.13-.1c4.02-2.36,3.07-8.27,3.06-8.33l-.08-.47.45-.13s1.5-.42,3.19-.95c.17-.05.28-.16.37-.33.44-.83.02-2.65-.18-3.29-2.97-16.76-8.67-48.71-9.08-50.12-.11-.37-.21-.45-.21-.45-.03.04-.23.26-.38.48-.59,4.34-3.03,4.99-4.44,4.99-.73,0-1.38-.16-1.82-.31-1.35,5.28.2,20.68,1.36,32.02.35,3.5.66,6.52.85,8.91.79,9.82-4.43,14.77-5.63,15.77l1.23,15.54c1.91.91,3.6,1.71,5.05,2.37.29-.3.59-.61.87-.94l.27-.32,14.94,7.93,10.56.99Z" fill="#a17d23"/>
    <path d="M67.91,175.18c.29-.3.58-.62.86-.95-.28.34-.57.64-.87.94,0,0,0,0,0,0Z" fill="#a17d23"/>
    <path d="M.57,153.92c1.36-.2,2.67-.36,3.91-.5.03,0,.05,0,.07,0,1.24-.13,2.39-.24,3.48-.32.09,0,.19-.01.29-.02,1.03-.07,1.98-.13,2.86-.17.15,0,.29-.01.43-.02.81-.03,1.54-.05,2.21-.06.08,0,.18,0,.26,0v-.32l.55.22.32.09h.19c1.13,0,2.01.03,2.59.06l-.23-.59.89.12c1.7.24,3.54.19,5.96-.17,3.53-.54,3.38-16.85,2.76-24.66-.1-1.31-.84-39.74-.95-45.36-.88.08-1.59-.19-2.13-.81-1.59-1.83-1-6.23-.98-6.42.66-10.8,2.65-14.29,3.2-15.06l.1-7.05c-1.55.47-5.48,1.91-7.24,5.03-1.08,1.92-2.05,5.18-3.17,8.96-1.23,4.14-2.63,8.84-4.5,12.71-2.57,5.28-4.28,32.95-3.72,50.54-.08.51-.13,1.01-.16,1.59-.09,2.39-.1,4.49-.11,6.33-.02,6.04-.02,9.68-3.25,12.27-1.19.95-2.6,1.92-4.2,2.9l.11.28.18.48c.1-.02.18-.02.28-.04Z" fill="#a17d23"/>
    <path d="M13.81,152.84c-.67.01-1.4.03-2.21.06.81-.03,1.54-.05,2.21-.06Z" fill="#a17d23"/>
    <path d="M4.47,153.43c-1.23.13-2.55.3-3.91.5,1.36-.2,2.67-.36,3.91-.5Z" fill="#a17d23"/>
    <path d="M11.17,152.92c-.89.04-1.83.09-2.86.17,1.03-.07,1.98-.13,2.86-.17Z" fill="#a17d23"/>
    <path d="M8.02,153.1c-1.09.08-2.25.19-3.48.32,1.24-.13,2.39-.24,3.48-.32Z" fill="#a17d23"/>
    <path d="M15,152.82h.13-.13Z" fill="#a17d23"/>
    <polygon points="0 153.2 .11 153.48 0 153.2 0 153.2" fill="#a17d23"/>
    <polygon points="14.07 152.51 14.07 152.58 14.62 152.73 14.07 152.51" fill="#a17d23"/>
    <path d="M15.72,62.69c-7.74-6.39-12.67-16.04-12.67-26.83C3.05,16.68,18.65,1.08,37.83,1.08s34.79,15.61,34.79,34.79c0,10.32-4.52,19.6-11.68,25.98l-2.05-3.67c5.93-5.6,9.63-13.53,9.63-22.31,0-16.92-13.77-30.69-30.69-30.69S7.13,18.94,7.13,35.86c0,9,3.89,17.1,10.07,22.72l-1.49,4.12Z" fill="#a17d23"/>
  </g>
</svg>